<svg width="662" height="354" viewBox="0 0 662 354" fill="none" xmlns="http://www.w3.org/2000/svg">
<path d="M5.89052 369.767L638.596 -7.96048C638.958 -8.17647 638.907 -8.71569 638.511 -8.85969L623.225 -14.4182C623.083 -14.4699 622.925 -14.4544 622.795 -14.3761L0.467441 362.217C0.216253 362.369 0.149476 362.704 0.3231 362.941L5.23103 369.633C5.38352 369.841 5.66911 369.899 5.89052 369.767Z" fill="#1435A0"/>
<path d="M343.022 140.865L344.491 167.807C344.498 167.931 344.459 168.053 344.38 168.15L338.107 175.868C338.038 175.954 337.942 176.014 337.834 176.039L319.615 180.354C319.301 180.429 319 180.19 319 179.868V155.207C319 155.074 319.053 154.947 319.146 154.854L323.38 150.62C323.654 150.346 323.526 149.878 323.151 149.782L273.305 136.964C272.81 136.837 272.466 137.447 272.831 137.805L323.593 187.601C323.809 187.812 323.789 188.165 323.551 188.351L312.89 196.695C312.674 196.864 312.372 196.839 312.2 196.625C297.509 178.284 261.809 138.391 234.002 122.5C206.004 106.5 231.001 89.5 247 83L321 58L497.773 2.57102C497.917 2.52608 498.032 2.41908 498.088 2.27961L510.897 -29.7432C510.961 -29.903 511.103 -30.0187 511.272 -30.0495L532.07 -33.8308C532.465 -33.9027 532.779 -33.5029 532.616 -33.1359L519.031 -2.56621C519.012 -2.5223 518.992 -2.48765 518.96 -2.45122C492.728 28.0512 237.498 76.0136 234.002 101.5C232.349 113.553 278.002 124 296.502 128.5L342.648 140.409C342.859 140.463 343.01 140.648 343.022 140.865Z" fill="#1435A0"/>
<path d="M378.149 146.436L338.259 166.867C338.099 166.949 337.907 166.939 337.757 166.84L319.672 154.942C319.363 154.738 319.374 154.281 319.694 154.093L332.749 146.44C333.082 146.245 333.078 145.762 332.741 145.573L325.744 141.637C325.592 141.552 325.408 141.551 325.256 141.636L321.171 143.905C321.061 143.966 320.937 143.985 320.815 143.955C279.608 133.926 204.643 109.171 233 90C244.285 82.3706 277.247 71.8106 316.946 59.8459C330.425 55.4584 345.419 50.9657 361.782 46.438C437.353 23.7776 517.189 -1.57106 517.995 -21.0993C518.005 -21.3396 518.171 -21.5347 518.407 -21.5825L550.953 -28.186C551.431 -28.2831 551.745 -27.7201 551.396 -27.3785C538.356 -14.6041 494.298 13.702 412 33.5C394.108 37.8042 377.327 42.1369 361.782 46.438C346.428 51.0421 331.25 55.5352 316.946 59.8459C267.375 75.9829 238.307 90.6972 237 100.5C235.401 112.492 315.891 127.813 356.418 133.987C356.474 133.996 356.526 134.014 356.575 134.04L378.156 145.55C378.512 145.74 378.508 146.252 378.149 146.436Z" fill="#2960CA"/>
<path d="M96.8728 373.465L650.739 33.9666C651.072 33.7624 651.5 34.0022 651.5 34.3929V45.7197C651.5 45.8938 651.409 46.0554 651.261 46.1463L108.208 378.373C108.077 378.453 107.916 378.468 107.772 378.414L96.9585 374.359C96.5687 374.213 96.5179 373.683 96.8728 373.465Z" fill="#1435A0"/>
<path d="M441.541 205.169L650.739 76.9665C651.072 76.7623 651.5 77.0021 651.5 77.3928V88.2173C651.5 88.3927 651.408 88.5553 651.258 88.6457L447.335 211.299C447.138 211.417 446.886 211.386 446.724 211.224L441.448 205.948C441.22 205.72 441.265 205.338 441.541 205.169Z" fill="#1435A0"/>
<path d="M520.238 177.598L650.761 106.403C651.094 106.222 651.5 106.463 651.5 106.842V115.703C651.5 115.886 651.4 116.055 651.24 116.142L528.261 183.357C528.1 183.445 527.904 183.438 527.75 183.338L520.205 178.456C519.887 178.251 519.905 177.779 520.238 177.598Z" fill="#1435A0"/>
<path d="M316.045 373.071L650.742 171.955C651.076 171.755 651.5 171.995 651.5 172.384V177.717C651.5 177.893 651.408 178.055 651.257 178.146L325.119 373.929C325.041 373.975 324.952 374 324.861 374H316.303C315.796 374 315.611 373.333 316.045 373.071Z" fill="#1435A0"/>
<path d="M435.582 366.569L650.746 239.943C651.08 239.747 651.5 239.988 651.5 240.374V247.21C651.5 247.389 651.404 247.555 651.248 247.644L441.115 367.434C441.04 367.477 440.954 367.5 440.867 367.5H435.835C435.326 367.5 435.143 366.827 435.582 366.569Z" fill="#1435A0"/>
<path d="M407.973 335.6L562.641 242.517C562.994 242.304 562.953 241.779 562.57 241.625L387.742 171.098C387.591 171.037 387.418 171.054 387.281 171.143L264.364 251.675C260.964 253.903 261.072 258.923 264.566 261.002L390 335.644C395.542 338.942 402.448 338.925 407.973 335.6Z" fill="#1435A0"/>
<mask id="mask0_2_34" style="mask-type:alpha" maskUnits="userSpaceOnUse" x="296" y="108" width="279" height="207">
<path d="M302 184.5L429.357 110.128C431.731 108.741 434.467 108.098 437.21 108.281C439.373 108.425 441.471 109.078 443.334 110.187L565.939 183.178C567.959 184.38 569.717 185.977 571.107 187.873C573.312 190.879 574.5 194.51 574.5 198.238V226.398C574.5 229.073 573.709 231.688 572.225 233.913C571.09 235.616 569.584 237.039 567.821 238.076L441.346 312.473C437.121 314.959 431.88 314.958 427.655 312.472L303.147 239.205C298.719 236.6 296 231.846 296 226.708V194C295.97 190.254 298 187 302 184.5Z" fill="#D9D9D9"/>
</mask>
<g mask="url(#mask0_2_34)">
<path d="M302 184.5L429.357 110.128C431.731 108.741 434.467 108.098 437.21 108.281C439.373 108.425 441.471 109.078 443.334 110.187L565.939 183.178C567.959 184.38 569.717 185.977 571.107 187.873C573.312 190.879 574.5 194.51 574.5 198.238V226.398C574.5 229.073 573.709 231.688 572.225 233.913C571.09 235.616 569.584 237.039 567.821 238.076L441.346 312.473C437.121 314.959 431.88 314.958 427.655 312.472L303.147 239.205C298.719 236.6 296 231.846 296 226.708V194C295.97 190.254 298 187 302 184.5Z" fill="#B2472B"/>
<path d="M334.926 183.651L454.248 114.646C454.404 114.556 454.596 114.556 454.751 114.648L504.301 143.795C504.706 144.033 504.59 144.646 504.127 144.72L500.48 145.303C495.541 146.094 490.803 147.839 486.531 150.441L377.65 216.776C375.221 218.256 372.928 219.946 370.795 221.828L367.939 224.348C366.483 225.632 364.368 225.839 362.692 224.859L324.153 202.342C322.434 201.338 321.898 199.103 322.975 197.428L326.923 191.287C328.945 188.141 331.689 185.523 334.926 183.651Z" fill="#C57D55"/>
<path d="M279.926 151.651L399.248 82.646C399.404 82.5558 399.596 82.5565 399.751 82.6479L449.301 111.795C449.706 112.033 449.59 112.646 449.127 112.72L445.48 113.303C440.541 114.094 435.803 115.839 431.531 118.441L322.65 184.776C320.221 186.256 317.928 187.946 315.795 189.828L312.939 192.348C311.483 193.632 309.368 193.839 307.692 192.859L269.153 170.342C267.434 169.338 266.898 167.103 267.975 165.428L271.923 159.287C273.945 156.141 276.689 153.523 279.926 151.651Z" fill="#C57D55"/>
<path d="M388.926 216.651L508.248 147.646C508.404 147.556 508.596 147.556 508.751 147.648L558.301 176.795C558.706 177.033 558.59 177.646 558.127 177.72L554.48 178.303C549.541 179.094 544.803 180.839 540.531 183.441L431.65 249.776C429.221 251.256 426.928 252.946 424.795 254.828L421.939 257.348C420.483 258.632 418.368 258.839 416.692 257.859L378.153 235.342C376.434 234.338 375.898 232.103 376.975 230.428L380.923 224.287C382.945 221.141 385.689 218.523 388.926 216.651Z" fill="#C57D55"/>
<path d="M443.059 250.64L567.727 180.154C567.894 180.06 568.1 180.069 568.258 180.178L612.477 210.792C612.847 211.048 612.716 211.625 612.271 211.697L608.48 212.303C603.541 213.094 598.803 214.839 594.531 217.441L485.65 283.776C483.221 285.256 480.928 286.946 478.795 288.828L475.939 291.348C474.483 292.632 472.368 292.839 470.692 291.859L432.153 269.342C430.434 268.338 429.898 266.103 430.975 264.428L434.857 258.389C436.921 255.178 439.736 252.518 443.059 250.64Z" fill="#C57D55"/>
<ellipse cx="348.824" cy="245.963" rx="2.68556" ry="4.50488" transform="rotate(-28.0174 348.824 245.963)" fill="#040F43"/>
<ellipse cx="377.487" cy="262.738" rx="2.68556" ry="4.50488" transform="rotate(-28.0174 377.487 262.738)" fill="#040F43"/>
<path d="M571.19 230.732L575.804 233.572C576.123 233.768 576.122 234.231 575.803 234.425L466.778 300.83C466.609 300.934 466.395 300.927 466.233 300.814L428.367 274.452C427.96 274.168 428.17 273.529 428.665 273.542L441.706 273.868C445.166 273.954 448.581 273.068 451.562 271.311L567.738 202.833C568.738 202.244 570 202.965 570 204.125V228.603C570 229.471 570.45 230.277 571.19 230.732Z" fill="#B2472B"/>
</g>
<path d="M563.474 275.205L562.037 258.919C562.016 258.677 561.833 258.486 561.591 258.466C539.444 256.628 494.668 253.512 489.5 255.5C484.37 257.473 484.982 268.044 485.96 273.289C485.985 273.426 486.067 273.542 486.186 273.615L495.795 279.563C496.115 279.762 496.109 280.229 495.785 280.42L459.63 301.63C459.327 301.808 459.292 302.231 459.569 302.447C467.85 308.91 485.747 321 492 321C498.219 321 505.886 326.666 509.22 329.739C509.387 329.892 509.634 329.917 509.827 329.799L528.737 318.162C528.898 318.063 529.102 318.063 529.262 318.163L578.31 348.572C578.626 348.768 578.625 349.229 578.307 349.424L570.743 354.046C570.414 354.247 570.427 354.73 570.767 354.913L576.204 357.841C576.383 357.937 576.602 357.916 576.759 357.786L584.744 351.211C584.899 351.083 585.116 351.061 585.294 351.154L615.328 366.91C615.439 366.968 615.567 366.982 615.688 366.951L623.947 364.777C624.361 364.668 624.456 364.125 624.104 363.882L596.625 344.931C596.33 344.727 596.339 344.287 596.644 344.096L621.245 328.66C621.402 328.562 621.6 328.558 621.761 328.651L656.731 348.845C656.896 348.94 657.1 348.933 657.258 348.828L660.842 346.439C661.148 346.235 661.137 345.782 660.822 345.594L553.243 281.146C553.092 281.055 553 280.892 553 280.717V277.64C553 277.315 553.306 277.076 553.621 277.155L558.785 278.446C558.922 278.48 559.067 278.455 559.184 278.377L563.253 275.664C563.405 275.563 563.49 275.387 563.474 275.205Z" fill="#1435A0"/>
<path d="M589.76 341.833L615.317 325.438C615.631 325.237 615.622 324.776 615.302 324.587L567.25 296.148C567.096 296.057 566.904 296.055 566.748 296.144L539.745 311.574C539.412 311.764 539.408 312.243 539.738 312.438L589.235 341.842C589.397 341.939 589.601 341.935 589.76 341.833Z" fill="#2960C9"/>
<path d="M548.233 284.671L542.008 288.674C541.744 288.843 541.7 289.211 541.915 289.438L550.214 298.198C550.38 298.373 550.647 298.405 550.849 298.273L559.842 292.427C560.149 292.228 560.145 291.778 559.835 291.584L548.769 284.668C548.605 284.565 548.396 284.567 548.233 284.671Z" fill="#2960C9"/>
<path d="M527.318 233.597L560.431 257.761C561.883 258.82 561.776 261.018 560.23 261.933L532.669 278.219C531.321 279.015 529.657 279.054 528.274 278.321L490.304 258.22C489.282 257.678 489.231 256.233 490.212 255.621L525.64 233.536C526.16 233.212 526.824 233.236 527.318 233.597Z" fill="#2960CA"/>
</svg>
