<svg width="411" height="291" viewBox="0 0 411 291" fill="none" xmlns="http://www.w3.org/2000/svg">
<path fill-rule="evenodd" clip-rule="evenodd" d="M64 122.5L149 94L198.5 68.5L207 75L242 62.5L252 72.5L243.5 76L245 77L253 74L255.5 76.5L247.5 79.5L248.5 80.5L256.5 77.5L259.5 80.5L251.5 84L252.5 84.5L260 81.5L262.5 83.5L232 94L237.5 98.5L259 91.5L259.5 92L268 89.5L270.5 92L263 95L263.5 95.5L271 93L274 96L266.5 99L267 100L274.5 97L278 100L270.5 102.5L271 103L278.5 100.5L282 103.5L274 107L274.5 107.5L282.5 104.5L285.5 107.5L277.5 110.5L278.5 111.5L286 108L289.5 111L265 119.5L269 123L284.5 118L286 119L294.5 116.5L297 119L289.5 122L290.5 123L297.5 119.5L301 123L293 126L293.5 127L301.5 123.5L304.5 126.5L296 129.5L297 130L305.5 127.5L308.5 131L300 134L301 134.5L309 131.5L312 134.5L304 137.5L304.5 138L312.5 135.5L315.5 138.5L297.5 145L301 148.5L311 145L312 146L320 143L323.5 146L315 149L315.5 150L324 146.5L327 150L318.5 153L319.5 153.5L327.5 151L330 153.5L322.5 156.5L323.5 157.5L331.5 154.5L334 157.5L326.5 161L327 162L335 158.5L338 161.5L330.5 164.5L331.5 165.5L339 162.5L341.5 165L329.5 170L333.5 174L337 172L338.5 173L346.5 170L349.5 173L341.5 176L342.5 177L350.5 174L353.5 177L345 180L346 181L354 178L356.5 180.5L348.5 184L349 184.5L357 181.5L360.5 184.5L352.5 187.5L353 188.5L361 185.5L364 188.5L356.5 191.5L357.5 192.5L365.5 189.5L367.5 192L349 199V187.5L323.5 195.5L341.5 185L286.523 212.736L239.5 176L237 177L284 214.5L287.5 213.5L286.63 212.82L321 203L230 250.5L212.5 237L215.5 235L227 244.5L284 215L283.5 214.5L229 242.5L226.5 241.5H229L282 214L281.5 213.5L229.5 240.5L219 232L226.5 229L227.5 229.5L280.5 212L275.5 208L262 212.5L266 208.5L255 212.5L236.5 210V212L252.5 215L236.5 220.5V218.5L228.5 220.5L228 208.5L199.5 205L198.5 207L226.5 211V223L214 227.5L184 204.5L235.5 186L236.5 186.5L244 183.5L240.5 181L185 201.5L233.5 176L233 175.5L181.5 202L227.5 177L179 200L147.5 175.5L173.5 166.5L177.5 163.5H181.5L200 157L202 158.5L209 155.5L205.5 153L198 155.5L197 154.5L180.5 161L178.5 160L172 162L163.5 155.5L162 157.5L169.5 164.5L144.5 172.5L134 165L130 167L140.5 176L137 177L106.5 153L111.5 151L106.5 146.5L102 149L78 131L76.5 145.5L64 149V155.5L76.5 151L64 158.5V176L74.5 183.5L63 186.5L64 122.5ZM79.5 186L60.5 192C60.6667 164 60.3 106.5 57.5 100.5C52.3334 125 43.7 179.2 50.5 200C47.5 205 31.4 217 -9 225L-5.5 245.5L114.5 205L79.5 186ZM-36.5 262L118.5 208.5L154 229L-26.5 288.5L-36.5 262ZM158 232L191 250.5L34.5 303.5L-18.5 293L158 232ZM198.5 255L91.5 293L166 293.5L392.5 218.5L391.5 216.5L383.5 219.5L382.5 219L390 215.5L387.5 212.5L379 216L378 215L386.5 211.5L383.5 208.5L375 212L374.5 211L382.5 208L380 205L372 208L371 207L379 204L376.5 201L368.5 204L367.5 203L375.5 200L373.5 197L318.5 215L217.5 265L198.5 255ZM400.5 225.5L401.5 227.5L239.5 281.5L400.5 225.5ZM110 113.5L150.5 94L200.5 76.5L203 77.5L209 75.5L214 80L209 82.5L237 106.5L244 103.5L249 106.5L246 109L242.5 107.5L172 135.5L142 106.5L152.5 99.5L110 113.5ZM285 135.5L280 131.5L276.5 132.5L272.5 131.5L248 139L261.5 131.5V130L244 139L221.5 146L219 144.5L216.5 146L219 147.5L211.5 150.5L191 135.5L187.5 137L206 152L235 174.5L239.5 172L216.5 154L277.5 134.5L280.5 136.5L285 135.5ZM311 166.5L309 162L315 159.5L319.5 163.5L311 166.5ZM200 177.5V176L193.5 179.5L181 169.5L166.5 177L162 173L160.5 175L165 179.5L180 172L192.5 181.5L200 177.5ZM202.5 160L188.5 167.5L187.5 166.5L201.5 159L202.5 160Z" fill="#3D3D3D"/>
<path d="M339 183L293.5 147.5L241 174.5V177L286 212.5L339 185V183Z" fill="#E3A285"/>
<path d="M235.5 106.5L199.5 78L91 134.5L126.5 162L235.5 106.5Z" fill="#A9C196"/>
<path d="M167 95L206.5 83L202.5 80L167 95Z" fill="#89AC6D"/>
<path d="M109.5 149L219 115L206.5 121.5L112 151L109.5 149Z" fill="#89AC6D"/>
<path fill-rule="evenodd" clip-rule="evenodd" d="M339 183.5L278.5 203.5L254 184L261 181L266.5 185L298 169.5L314.5 164L306.5 157.5L244.5 176.5L241 174.5V177L286.5 213L339 185V183.5ZM275.5 192L277 190L282 193.5L317 175.5L317.5 177L280.5 196L275.5 192ZM263.5 178.5L268 182.5L297 168L263.5 178.5Z" fill="#DC8C6A"/>
<path d="M227.5 202.5V191L226 192V202.5H227.5Z" fill="black"/>
</svg>
