<svg width="1280" height="889" viewBox="0 0 1280 889" fill="none" xmlns="http://www.w3.org/2000/svg">
<path fill-rule="evenodd" clip-rule="evenodd" d="M-0.943142 2.31568C-8.87494 -3.45139 -20 2.21464 -20 12.0214V211.348C-20 215.188 -18.1625 218.796 -15.0569 221.054L200.943 378.104C208.875 383.871 220 378.205 220 368.398V169.071C220 165.232 218.162 161.624 215.057 159.366L-0.943142 2.31568ZM194 168.619L-16 9.95976V215.801L194 369.46V168.619Z" fill="#004FA4"/>
<path fill-rule="evenodd" clip-rule="evenodd" d="M228.057 2.31568C220.125 -3.45139 209 2.21464 209 12.0214V211.348C209 215.188 210.838 218.796 213.943 221.054L429.943 378.104C437.875 383.871 449 378.205 449 368.398V169.071C449 165.232 447.162 161.624 444.057 159.366L228.057 2.31568ZM423 168.619L213 9.95976V215.801L423 369.46V168.619Z" fill="#004FA4"/>
<path fill-rule="evenodd" clip-rule="evenodd" d="M457.057 2.31568C449.125 -3.45139 438 2.21464 438 12.0214V211.348C438 215.188 439.838 218.796 442.943 221.054L658.943 378.104C666.875 383.871 678 378.205 678 368.398V169.071C678 165.232 676.162 161.624 673.057 159.366L457.057 2.31568ZM652 168.619L442 9.95976V215.801L652 369.46V168.619Z" fill="#004FA4"/>
<path fill-rule="evenodd" clip-rule="evenodd" d="M686.057 2.31568C678.125 -3.45139 667 2.21464 667 12.0214V211.348C667 215.188 668.838 218.796 671.943 221.054L887.943 378.104C895.875 383.871 907 378.205 907 368.398V169.071C907 165.232 905.162 161.624 902.057 159.366L686.057 2.31568ZM881 168.619L671 9.95976V215.801L881 369.46V168.619Z" fill="#004FA4"/>
<path fill-rule="evenodd" clip-rule="evenodd" d="M915.057 2.31568C907.125 -3.45139 896 2.21464 896 12.0214V211.348C896 215.188 897.838 218.796 900.943 221.054L1116.94 378.104C1124.87 383.871 1136 378.205 1136 368.398V169.071C1136 165.232 1134.16 161.624 1131.06 159.366L915.057 2.31568ZM1110 168.619L900 9.95976V215.801L1110 369.46V168.619Z" fill="#004FA4"/>
<path fill-rule="evenodd" clip-rule="evenodd" d="M1144.06 2.31568C1136.13 -3.45139 1125 2.21464 1125 12.0214V211.348C1125 215.188 1126.84 218.796 1129.94 221.054L1345.94 378.104C1353.87 383.871 1365 378.205 1365 368.398V169.071C1365 165.232 1363.16 161.624 1360.06 159.366L1144.06 2.31568ZM1339 168.619L1129 9.95976V215.801L1339 369.46V168.619Z" fill="#004FA4"/>
<path fill-rule="evenodd" clip-rule="evenodd" d="M-0.943142 382.276C-8.87494 376.509 -20 382.175 -20 391.981V591.308C-20 595.148 -18.1625 598.756 -15.0569 601.014L200.943 758.064C208.875 763.831 220 758.165 220 748.358V549.031C220 545.192 218.162 541.584 215.057 539.326L-0.943142 382.276ZM194 548.579L-16 389.92V595.76L194 749.42V548.579Z" fill="#004FA4"/>
<path fill-rule="evenodd" clip-rule="evenodd" d="M228.057 382.276C220.125 376.509 209 382.175 209 391.981V591.308C209 595.148 210.838 598.756 213.943 601.014L429.943 758.064C437.875 763.831 449 758.165 449 748.358V549.031C449 545.192 447.162 541.584 444.057 539.326L228.057 382.276ZM423 548.579L213 389.92V595.76L423 749.42V548.579Z" fill="#004FA4"/>
<path fill-rule="evenodd" clip-rule="evenodd" d="M457.057 382.276C449.125 376.509 438 382.175 438 391.981V591.308C438 595.148 439.838 598.756 442.943 601.014L658.943 758.064C666.875 763.831 678 758.165 678 748.358V549.031C678 545.192 676.162 541.584 673.057 539.326L457.057 382.276ZM652 548.579L442 389.92V595.76L652 749.42V548.579Z" fill="#004FA4"/>
<path fill-rule="evenodd" clip-rule="evenodd" d="M686.057 382.276C678.125 376.509 667 382.175 667 391.981V591.308C667 595.148 668.838 598.756 671.943 601.014L887.943 758.064C895.875 763.831 907 758.165 907 748.358V549.031C907 545.192 905.162 541.584 902.057 539.326L686.057 382.276ZM881 548.579L671 389.92V595.76L881 749.42V548.579Z" fill="#004FA4"/>
<path fill-rule="evenodd" clip-rule="evenodd" d="M915.057 382.276C907.125 376.509 896 382.175 896 391.981V591.308C896 595.148 897.838 598.756 900.943 601.014L1116.94 758.064C1124.87 763.831 1136 758.165 1136 748.358V549.031C1136 545.192 1134.16 541.584 1131.06 539.326L915.057 382.276ZM1110 548.579L900 389.92V595.76L1110 749.42V548.579Z" fill="#004FA4"/>
<path fill-rule="evenodd" clip-rule="evenodd" d="M1144.06 382.276C1136.13 376.509 1125 382.175 1125 391.981V591.308C1125 595.148 1126.84 598.756 1129.94 601.014L1345.94 758.064C1353.87 763.831 1365 758.165 1365 748.358V549.031C1365 545.192 1363.16 541.584 1360.06 539.326L1144.06 382.276ZM1339 548.579L1129 389.92V595.76L1339 749.42V548.579Z" fill="#004FA4"/>
<path fill-rule="evenodd" clip-rule="evenodd" d="M-0.943142 762.316C-8.87494 756.549 -20 762.215 -20 772.021V971.348C-20 975.188 -18.1625 978.796 -15.0569 981.054L200.943 1138.1C208.875 1143.87 220 1138.2 220 1128.4V929.071C220 925.232 218.162 921.624 215.057 919.366L-0.943142 762.316ZM194 928.619L-16 769.96V975.801L194 1129.46V928.619Z" fill="#004FA4"/>
<path fill-rule="evenodd" clip-rule="evenodd" d="M228.057 762.316C220.125 756.549 209 762.215 209 772.021V971.348C209 975.188 210.838 978.796 213.943 981.054L429.943 1138.1C437.875 1143.87 449 1138.2 449 1128.4V929.071C449 925.232 447.162 921.624 444.057 919.366L228.057 762.316ZM423 928.619L213 769.96V975.801L423 1129.46V928.619Z" fill="#004FA4"/>
<path fill-rule="evenodd" clip-rule="evenodd" d="M457.057 762.316C449.125 756.549 438 762.215 438 772.021V971.348C438 975.188 439.838 978.796 442.943 981.054L658.943 1138.1C666.875 1143.87 678 1138.2 678 1128.4V929.071C678 925.232 676.162 921.624 673.057 919.366L457.057 762.316ZM652 928.619L442 769.96V975.801L652 1129.46V928.619Z" fill="#004FA4"/>
<path fill-rule="evenodd" clip-rule="evenodd" d="M686.057 762.316C678.125 756.549 667 762.215 667 772.021V971.348C667 975.188 668.838 978.796 671.943 981.054L887.943 1138.1C895.875 1143.87 907 1138.2 907 1128.4V929.071C907 925.232 905.162 921.624 902.057 919.366L686.057 762.316ZM881 928.619L671 769.96V975.801L881 1129.46V928.619Z" fill="#004FA4"/>
<path fill-rule="evenodd" clip-rule="evenodd" d="M915.057 762.316C907.125 756.549 896 762.215 896 772.021V971.348C896 975.188 897.838 978.796 900.943 981.054L1116.94 1138.1C1124.87 1143.87 1136 1138.2 1136 1128.4V929.071C1136 925.232 1134.16 921.624 1131.06 919.366L915.057 762.316ZM1110 928.619L900 769.96V975.801L1110 1129.46V928.619Z" fill="#004FA4"/>
<path fill-rule="evenodd" clip-rule="evenodd" d="M1144.06 762.316C1136.13 756.549 1125 762.215 1125 772.021V971.348C1125 975.188 1126.84 978.796 1129.94 981.054L1345.94 1138.1C1353.87 1143.87 1365 1138.2 1365 1128.4V929.071C1365 925.232 1363.16 921.624 1360.06 919.366L1144.06 762.316ZM1339 928.619L1129 769.96V975.801L1339 1129.46V928.619Z" fill="#004FA4"/>
</svg>
