<svg width="100" height="100" viewBox="0 0 100 100" fill="none" xmlns="http://www.w3.org/2000/svg">
<path d="M56.25 6.25C56.25 2.79297 53.457 0 50 0C46.543 0 43.75 2.79297 43.75 6.25V53.6523L29.4141 39.3164C26.9727 36.875 23.0078 36.875 20.5664 39.3164C18.125 41.7578 18.125 45.7227 20.5664 48.1641L45.5664 73.1641C48.0078 75.6055 51.9727 75.6055 54.4141 73.1641L79.4141 48.1641C81.8555 45.7227 81.8555 41.7578 79.4141 39.3164C76.9727 36.875 73.0078 36.875 70.5664 39.3164L56.25 53.6523V6.25ZM12.5 68.75C5.60547 68.75 0 74.3555 0 81.25V87.5C0 94.3945 5.60547 100 12.5 100H87.5C94.3945 100 100 94.3945 100 87.5V81.25C100 74.3555 94.3945 68.75 87.5 68.75H67.6758L58.8281 77.5977C53.9453 82.4805 46.0352 82.4805 41.1523 77.5977L32.3242 68.75H12.5ZM84.375 79.6875C85.6182 79.6875 86.8105 80.1814 87.6896 81.0604C88.5686 81.9395 89.0625 83.1318 89.0625 84.375C89.0625 85.6182 88.5686 86.8105 87.6896 87.6896C86.8105 88.5686 85.6182 89.0625 84.375 89.0625C83.1318 89.0625 81.9395 88.5686 81.0604 87.6896C80.1814 86.8105 79.6875 85.6182 79.6875 84.375C79.6875 83.1318 80.1814 81.9395 81.0604 81.0604C81.9395 80.1814 83.1318 79.6875 84.375 79.6875Z" fill="white"/>
</svg>
