<svg width="45" height="40" viewBox="0 0 45 40" fill="none" xmlns="http://www.w3.org/2000/svg">
<path d="M43.6646 4.41812C44.0351 4.60336 44.4856 4.45319 44.6708 4.08271C44.8561 3.71223 44.7059 3.26172 44.3354 3.07648L43.6646 4.41812ZM22.844 15.6224L22.3709 16.2043L22.844 15.6224ZM5.43778 39.5721C5.71194 39.8826 6.1859 39.9121 6.4964 39.6379L11.5563 35.1703C11.8668 34.8961 11.8963 34.4222 11.6222 34.1117C11.348 33.8012 10.874 33.7717 10.5635 34.0459L6.06582 38.0171L2.09461 33.5193C1.82046 33.2088 1.3465 33.1794 1.036 33.4535C0.725493 33.7277 0.696027 34.2016 0.970181 34.5121L5.43778 39.5721ZM44.3354 3.07648C37.0196 -0.581419 28.021 -0.449745 22.5574 2.10296C19.8303 3.3771 17.8036 5.34976 17.5457 7.93107C17.2884 10.5062 18.8303 13.3257 22.3709 16.2043L23.3172 15.0405C19.9199 12.2784 18.8562 9.90257 19.0383 8.08019C19.2197 6.26401 20.6773 4.63703 23.1924 3.46194C28.2131 1.11617 36.7303 0.950966 43.6646 4.41812L44.3354 3.07648ZM22.3709 16.2043C24.89 18.2524 26.668 19.3441 27.8267 19.6956C28.3654 19.859 29.0462 19.9466 29.5477 19.5293C30.0827 19.0841 30.037 18.3987 29.9332 17.9597C29.7097 17.0153 28.9146 15.784 27.8515 14.6201C26.7654 13.4311 25.3139 12.2185 23.6572 11.3364C22.0017 10.4551 20.1021 9.88379 18.141 10.0422C16.1606 10.2021 14.1896 11.101 12.4129 13.0319C8.90763 16.8413 6.14367 24.678 5.25145 39.0291L6.74855 39.1222C7.63745 24.8247 10.3852 17.4508 13.5167 14.0476C15.0583 12.3723 16.6869 11.6645 18.2618 11.5373C19.8559 11.4086 21.4671 11.8698 22.9523 12.6605C24.4362 13.4505 25.7553 14.5495 26.744 15.6318C27.7556 16.7392 28.3395 17.7389 28.4735 18.3051C28.5483 18.6214 28.426 18.5113 28.5883 18.3762C28.7171 18.2691 28.729 18.4018 28.2621 18.2601C27.4096 18.0016 25.8293 17.0829 23.3172 15.0405L22.3709 16.2043Z" fill="#4F4F4F"/>
</svg>
