<svg width="279" height="218" viewBox="0 0 279 218" fill="none" xmlns="http://www.w3.org/2000/svg">
<g filter="url(#filter0_d_112_72)">
<rect x="33" y="24" width="213" height="152" rx="16" fill="white"/>
<path d="M50.4212 50L47.3692 39.766H49.2312L50.8552 45.17C51.0092 45.73 51.1632 46.304 51.3172 47.2C51.4852 46.29 51.6392 45.758 51.8212 45.17L53.4312 39.766H55.4052L56.9872 45.17C57.1552 45.744 57.3092 46.332 57.4772 47.2C57.6732 46.248 57.8132 45.702 57.9672 45.184L59.6192 39.766H61.4392L58.3312 50H56.5952L54.4112 42.552L52.1852 50H50.4212ZM64.6293 50.182C62.5713 50.182 61.1293 48.684 61.1293 46.542C61.1293 44.372 62.5433 42.874 64.5733 42.874C66.6453 42.874 67.9613 44.26 67.9613 46.416V46.934L62.7533 46.948C62.8793 48.166 63.5233 48.782 64.6573 48.782C65.5953 48.782 66.2113 48.418 66.4073 47.76H67.9893C67.6953 49.272 66.4353 50.182 64.6293 50.182ZM64.5873 44.274C63.5793 44.274 62.9633 44.82 62.7953 45.856H66.2673C66.2673 44.904 65.6093 44.274 64.5873 44.274ZM72.4223 50.182C70.3643 50.182 68.9223 48.684 68.9223 46.542C68.9223 44.372 70.3363 42.874 72.3663 42.874C74.4383 42.874 75.7543 44.26 75.7543 46.416V46.934L70.5463 46.948C70.6723 48.166 71.3163 48.782 72.4503 48.782C73.3883 48.782 74.0043 48.418 74.2003 47.76H75.7823C75.4883 49.272 74.2283 50.182 72.4223 50.182ZM72.3803 44.274C71.3723 44.274 70.7563 44.82 70.5883 45.856H74.0603C74.0603 44.904 73.4023 44.274 72.3803 44.274ZM78.8433 50H77.1493V39.584H78.8433V45.982L81.5313 43.084H83.6733L81.0413 45.828L83.6173 50H81.6573L79.8513 47.088L78.8433 48.138V50ZM86.3765 50H84.6825V39.584H86.3765V50ZM87.5661 53.206V51.778H88.5881C89.2601 51.778 89.6801 51.624 89.9741 50.812L90.1701 50.294L87.3841 43.084H89.1901L90.9681 48.124L92.8441 43.084H94.6081L91.2201 51.54C90.7021 52.828 89.9741 53.36 88.8401 53.36C88.3641 53.36 87.9441 53.304 87.5661 53.206ZM104.084 41.278C102.054 41.278 100.892 42.748 100.892 44.96C100.892 47.242 102.208 48.488 104.098 48.488C105.876 48.488 106.954 47.508 106.954 45.87V45.828H103.86V44.246H108.62V50H107.108L106.996 48.824C106.436 49.608 105.274 50.154 103.888 50.154C101.018 50.154 99.0157 48.068 99.0157 44.918C99.0157 41.81 101.046 39.598 104.126 39.598C106.464 39.598 108.27 40.956 108.564 43.042H106.674C106.352 41.838 105.316 41.278 104.084 41.278ZM114.643 43.056V44.638H114.013C112.781 44.638 112.011 45.296 112.011 46.64V50H110.303V43.098H111.913L112.011 44.106C112.305 43.42 112.963 42.958 113.887 42.958C114.125 42.958 114.363 42.986 114.643 43.056ZM115.161 46.528C115.161 44.372 116.715 42.888 118.857 42.888C120.999 42.888 122.553 44.372 122.553 46.528C122.553 48.684 120.999 50.168 118.857 50.168C116.715 50.168 115.161 48.684 115.161 46.528ZM116.869 46.528C116.869 47.788 117.681 48.642 118.857 48.642C120.033 48.642 120.845 47.788 120.845 46.528C120.845 45.268 120.033 44.414 118.857 44.414C117.681 44.414 116.869 45.268 116.869 46.528ZM125.091 50L122.851 43.084H124.629L125.539 46.052C125.693 46.598 125.833 47.2 125.959 47.844C126.085 47.172 126.211 46.738 126.435 46.052L127.387 43.084H129.123L130.047 46.052C130.131 46.332 130.411 47.368 130.495 47.83C130.607 47.312 130.831 46.486 130.957 46.052L131.881 43.084H133.687L131.293 50H129.697L128.745 47.004C128.465 46.094 128.311 45.436 128.255 45.086C128.185 45.408 128.059 45.898 127.709 47.032L126.757 50H125.091ZM137.073 50H135.365V44.512H134.035V43.084H135.365V40.928H137.073V43.084H138.417V44.512H137.073V50ZM141.187 50H139.479V39.584H141.201V43.98C141.635 43.308 142.447 42.874 143.441 42.874C145.149 42.874 146.045 43.952 146.045 45.744V50H144.337V46.15C144.337 44.988 143.763 44.428 142.895 44.428C141.817 44.428 141.187 45.184 141.187 46.22V50Z" fill="#141414"/>
<circle cx="97" cy="158" r="6" fill="#FF7777"/>
<path d="M110.59 156.42H109.374V155.716H111.342V161.5H110.59V156.42ZM116.28 161.492L112.376 161.5V160.9L114.24 159.292C115.176 158.484 115.44 158.092 115.44 157.476C115.44 156.748 115.024 156.316 114.328 156.316C113.616 156.316 113.152 156.836 113.136 157.66H112.352C112.376 156.42 113.16 155.612 114.336 155.612C115.496 155.612 116.24 156.316 116.24 157.428C116.24 158.252 115.832 158.836 114.808 159.724L113.608 160.764H116.28V161.492ZM118.689 158.508H118.113V157.988L119.753 156.412H117.153V155.716H120.745V156.348L119.161 157.86C120.145 157.98 120.889 158.644 120.889 159.684C120.889 160.852 120.009 161.596 118.833 161.596C117.697 161.596 116.881 160.9 116.881 159.7H117.657C117.657 160.452 118.121 160.892 118.849 160.892C119.601 160.892 120.089 160.412 120.089 159.668C120.089 158.972 119.609 158.508 118.689 158.508ZM125.884 160.332H125.196V161.5H124.444V160.332H121.452V159.636L124.18 155.716H125.196V159.636H125.884V160.332ZM122.3 159.636H124.444V156.548L122.3 159.636ZM128.516 161.596C127.332 161.596 126.564 160.844 126.564 159.692H127.34C127.34 160.436 127.796 160.892 128.532 160.892C129.316 160.892 129.82 160.372 129.82 159.588C129.82 158.844 129.348 158.292 128.54 158.292C128.052 158.292 127.604 158.524 127.34 158.852L126.676 158.684L127.38 155.716H130.276V156.436H127.948L127.564 157.972C127.868 157.74 128.252 157.62 128.684 157.62C129.86 157.62 130.62 158.444 130.62 159.556C130.62 160.756 129.764 161.596 128.516 161.596Z" fill="#141414"/>
<circle cx="150" cy="158" r="6" fill="#6389EB"/>
<path d="M166.627 161.492L162.723 161.5V160.9L164.587 159.292C165.523 158.484 165.787 158.092 165.787 157.476C165.787 156.748 165.371 156.316 164.675 156.316C163.963 156.316 163.499 156.836 163.483 157.66H162.699C162.723 156.42 163.507 155.612 164.683 155.612C165.843 155.612 166.587 156.316 166.587 157.428C166.587 158.252 166.179 158.836 165.155 159.724L163.955 160.764H166.627V161.492ZM168.131 161.596C167.819 161.596 167.555 161.34 167.555 161.036C167.555 160.724 167.819 160.468 168.131 160.468C168.435 160.468 168.699 160.724 168.699 161.036C168.699 161.34 168.435 161.596 168.131 161.596ZM173.809 160.332H173.121V161.5H172.369V160.332H169.377V159.636L172.105 155.716H173.121V159.636H173.809V160.332ZM170.225 159.636H172.369V156.548L170.225 159.636ZM177.447 157.084C177.447 157.94 176.839 158.556 175.983 158.556C175.135 158.556 174.527 157.94 174.527 157.084C174.527 156.22 175.135 155.604 175.983 155.604C176.839 155.604 177.447 156.22 177.447 157.084ZM180.495 155.724L176.103 161.5H175.335L179.727 155.724H180.495ZM176.831 157.084C176.831 156.564 176.487 156.204 175.983 156.204C175.487 156.204 175.143 156.564 175.143 157.084C175.143 157.596 175.487 157.956 175.983 157.956C176.479 157.956 176.831 157.596 176.831 157.084ZM181.319 160.132C181.319 160.988 180.703 161.604 179.855 161.604C179.007 161.604 178.391 160.988 178.391 160.132C178.391 159.268 179.007 158.66 179.855 158.66C180.703 158.66 181.319 159.268 181.319 160.132ZM180.695 160.132C180.695 159.612 180.359 159.252 179.855 159.252C179.359 159.252 179.015 159.612 179.015 160.132C179.015 160.644 179.359 161.004 179.855 161.004C180.351 161.004 180.695 160.644 180.695 160.132Z" fill="#141414"/>
<path d="M187.673 160.5C187.673 160.681 187.819 160.827 188 160.827C188.181 160.827 188.327 160.681 188.327 160.5H187.673ZM188.231 155.269C188.104 155.141 187.896 155.141 187.769 155.269L185.685 157.352C185.558 157.479 185.558 157.687 185.685 157.815C185.813 157.942 186.021 157.942 186.148 157.815L188 155.963L189.852 157.815C189.979 157.942 190.187 157.942 190.315 157.815C190.442 157.687 190.442 157.479 190.315 157.352L188.231 155.269ZM188.327 160.5V155.5H187.673V160.5H188.327Z" fill="#FF8933"/>
<path d="M68 121.597C74.6667 126.614 90.2 124.462 99 100.38C110 70.2779 123.471 113.571 129.5 121.597C136.005 130.257 148.5 132.756 157 87.3355C164.848 45.3978 179.642 108.097 182 115.431C183.5 120.097 189.5 143.597 212 89.3428" stroke="#6389EB" stroke-width="2" stroke-linecap="round"/>
</g>
<defs>
<filter id="filter0_d_112_72" x="0" y="0" width="279" height="218" filterUnits="userSpaceOnUse" color-interpolation-filters="sRGB">
<feFlood flood-opacity="0" result="BackgroundImageFix"/>
<feColorMatrix in="SourceAlpha" type="matrix" values="0 0 0 0 0 0 0 0 0 0 0 0 0 0 0 0 0 0 127 0" result="hardAlpha"/>
<feMorphology radius="12" operator="erode" in="SourceAlpha" result="effect1_dropShadow_112_72"/>
<feOffset dy="9"/>
<feGaussianBlur stdDeviation="22.5"/>
<feComposite in2="hardAlpha" operator="out"/>
<feColorMatrix type="matrix" values="0 0 0 0 0 0 0 0 0 0 0 0 0 0 0 0 0 0 0.1 0"/>
<feBlend mode="normal" in2="BackgroundImageFix" result="effect1_dropShadow_112_72"/>
<feBlend mode="normal" in="SourceGraphic" in2="effect1_dropShadow_112_72" result="shape"/>
</filter>
</defs>
</svg>
