<svg width="157" height="24" viewBox="0 0 157 24" fill="none" xmlns="http://www.w3.org/2000/svg">
<path d="M20.4202 15.025V14.2519V13.2099V8.26871V7.22669L21.2269 5.54602L25.2605 2.35274C25.7983 1.91577 26.605 2.28552 26.605 2.9914V18.3191C26.605 19.025 25.7647 19.3948 25.2269 18.9578L20.4202 15.025Z" fill="#00AC47"/>
<path d="M7.04078 0L0.519775 6.52101H7.04078V0Z" fill="#EA4335"/>
<path d="M7.04078 6.55457H0.519775V15.0588H7.04078V6.55457Z" fill="#2684FC"/>
<path d="M0.519775 15.0253V19.395C0.519775 20.6051 1.49457 21.5799 2.70465 21.5799H7.0744V15.0589H0.519775V15.0253Z" fill="#0066DA"/>
<path d="M21.2578 2.15126C21.2578 0.974793 20.283 0 19.1401 0H14.8712H7.03931V6.52101H15.0393V10.7899L21.2578 10.5882V2.15126Z" fill="#FFBA00"/>
<path d="M15.0393 15.0253H7.03931V21.5463H14.8376H19.1065C20.283 21.5463 21.2242 20.5716 21.2242 19.3951V10.79H15.0393V15.0253Z" fill="#00AC47"/>
<path d="M21.2597 5.57959V15.6972L15.0413 10.7897L21.2597 5.57959Z" fill="#00832D"/>
<path d="M112.889 18.6889H110.973V3.73096H112.889L118.099 12.8402H118.166L123.376 3.73096H125.292V18.6889H123.376V9.81499L123.443 7.29398H123.376L118.704 15.4957H117.561L112.889 7.29398H112.822L112.889 9.81499V18.6889Z" fill="#5F6368"/>
<path d="M132.589 19.025C131.077 19.025 129.833 18.5208 128.858 17.4787C127.883 16.4367 127.379 15.1594 127.379 13.5796C127.379 12.0334 127.85 10.7224 128.791 9.68042C129.732 8.6384 130.942 8.10059 132.421 8.10059C133.934 8.10059 135.144 8.60479 136.051 9.57958C136.959 10.5544 137.396 11.9325 137.396 13.714L137.362 13.9157H129.329C129.362 14.9241 129.698 15.7308 130.337 16.3359C130.976 16.9409 131.749 17.2434 132.623 17.2434C133.833 17.2434 134.808 16.6384 135.514 15.3947L137.228 16.235C136.757 17.109 136.119 17.7813 135.312 18.2518C134.539 18.7897 133.631 19.025 132.589 19.025ZM129.53 12.3359H135.379C135.312 11.63 135.043 11.025 134.505 10.588C134.001 10.1174 133.295 9.8821 132.421 9.8821C131.682 9.8821 131.077 10.1174 130.539 10.5544C130.035 10.9913 129.698 11.5964 129.53 12.3359Z" fill="#5F6368"/>
<path d="M143.882 19.025C142.37 19.025 141.126 18.5208 140.151 17.4787C139.176 16.4367 138.672 15.1594 138.672 13.5796C138.672 12.0334 139.143 10.7224 140.084 9.68042C141.025 8.6384 142.235 8.10059 143.714 8.10059C145.227 8.10059 146.437 8.60479 147.344 9.57958C148.252 10.5544 148.689 11.9325 148.689 13.714L148.655 13.9157H140.622C140.655 14.9241 140.991 15.7308 141.63 16.3359C142.269 16.9409 143.042 17.2434 143.916 17.2434C145.126 17.2434 146.101 16.6384 146.807 15.3947L148.521 16.235C148.05 17.109 147.412 17.7813 146.605 18.2518C145.865 18.7897 144.924 19.025 143.882 19.025ZM140.823 12.3359H146.706C146.639 11.63 146.37 11.025 145.832 10.588C145.328 10.1174 144.622 9.8821 143.748 9.8821C143.008 9.8821 142.403 10.1174 141.865 10.5544C141.328 10.9913 140.991 11.5964 140.823 12.3359Z" fill="#5F6368"/>
<path d="M154.269 18.8568C153.428 18.8568 152.722 18.5879 152.185 18.0837C151.647 17.5795 151.378 16.84 151.344 15.9324V10.2181H149.563V8.4366H151.344V5.31055H153.26V8.4366H155.781V10.1845H153.26V15.2937C153.26 15.966 153.395 16.4366 153.664 16.7055C153.932 16.9408 154.235 17.0753 154.571 17.0753C154.739 17.0753 154.874 17.0753 155.008 17.0416C155.176 17.008 155.311 16.9408 155.411 16.9072L156.017 18.6215C155.512 18.7559 154.907 18.8568 154.269 18.8568Z" fill="#5F6368"/>
<path d="M47.5787 12.3696V10.0839H55.2425C55.3098 10.4872 55.377 10.9578 55.377 11.4956C55.377 13.2099 54.9064 15.3276 53.3938 16.8402C51.9148 18.3864 50.0324 19.1931 47.545 19.1931C42.94 19.1931 39.0745 15.4284 39.0745 10.8234C39.0745 6.21832 42.94 2.45361 47.545 2.45361C50.0997 2.45361 51.9148 3.46202 53.2593 4.77294L51.6459 6.38638C50.6711 5.47882 49.3266 4.73933 47.5114 4.73933C44.1501 4.73933 41.5282 7.46202 41.5282 10.8234C41.5282 14.1847 44.1501 16.9074 47.5114 16.9074C49.6963 16.9074 50.94 16.0334 51.7467 15.2267C52.3854 14.5881 52.8224 13.6469 52.9904 12.3696H47.5787Z" fill="#5F6368"/>
<path d="M67.0074 13.7815C67.0074 16.8739 64.5872 19.1596 61.5956 19.1596C58.604 19.1596 56.1838 16.8739 56.1838 13.7815C56.1838 10.6554 58.604 8.40332 61.5956 8.40332C64.5536 8.40332 67.0074 10.6554 67.0074 13.7815ZM64.6208 13.7815C64.6208 11.8319 63.209 10.521 61.5956 10.521C59.9485 10.521 58.5704 11.8319 58.5704 13.7815C58.5704 15.6974 59.9822 17.042 61.5956 17.042C63.209 17.042 64.6208 15.6974 64.6208 13.7815Z" fill="#5F6368"/>
<path d="M78.7691 13.7815C78.7691 16.8739 76.3489 19.1596 73.3573 19.1596C70.3657 19.1596 67.9456 16.8739 67.9456 13.7815C67.9456 10.6554 70.3657 8.40332 73.3573 8.40332C76.3489 8.40332 78.7691 10.6554 78.7691 13.7815ZM76.4161 13.7815C76.4161 11.8319 75.0044 10.521 73.3909 10.521C71.7439 10.521 70.3657 11.8319 70.3657 13.7815C70.3657 15.6974 71.7775 17.042 73.3909 17.042C75.0044 17.042 76.4161 15.6974 76.4161 13.7815Z" fill="#5F6368"/>
<path d="M90.0984 8.70528V18.3859C90.0984 22.3523 87.7455 23.9994 84.9892 23.9994C82.3674 23.9994 80.8211 22.2515 80.2161 20.8061L82.2665 19.9658C82.6363 20.8397 83.5438 21.8817 84.9892 21.8817C86.7707 21.8817 87.88 20.7725 87.88 18.7221V17.949H87.8127C87.2749 18.5876 86.2665 19.1591 84.9892 19.1591C82.3001 19.1591 79.8127 16.8061 79.8127 13.7809C79.8127 10.7557 82.2665 8.36914 84.9892 8.36914C86.2665 8.36914 87.3085 8.94057 87.8127 9.57922H87.88V8.70528H90.0984ZM88.0144 13.7809C88.0144 11.8985 86.7371 10.4868 85.1237 10.4868C83.4766 10.4868 82.1321 11.8649 82.1321 13.7809C82.1321 15.6633 83.5102 17.0414 85.1237 17.0414C86.7371 17.0414 88.0144 15.6633 88.0144 13.7809Z" fill="#5F6368"/>
<path d="M94.0993 3.05859V18.8233H91.7463V3.05859H94.0993Z" fill="#5F6368"/>
<path d="M103.24 15.563L105.089 16.7731C104.484 17.647 103.072 19.1596 100.618 19.1596C97.5594 19.1596 95.2737 16.8067 95.2737 13.7815C95.2737 10.5882 97.593 8.40332 100.349 8.40332C103.139 8.40332 104.517 10.6218 104.954 11.8319L105.19 12.4369L97.9964 15.4285C98.5342 16.5042 99.4081 17.0756 100.618 17.0756C101.761 17.042 102.601 16.4369 103.24 15.563ZM97.5594 13.6134L102.366 11.6302C102.097 10.9579 101.29 10.4874 100.383 10.4874C99.1728 10.4537 97.5258 11.5294 97.5594 13.6134Z" fill="#5F6368"/>
</svg>
