<svg width="47" height="48" viewBox="0 0 47 48" fill="none" xmlns="http://www.w3.org/2000/svg">
<g clip-path="url(#clip0_2_200)">
<path d="M45.4655 17.8321L45.3758 17.2264L45.3192 17.0404L45.1864 16.5961L45.0094 16.3142L44.7981 16.0503L44.5158 15.7892L44.1964 15.555L43.877 15.3208L43.5582 15.0866L43.2394 14.853L42.9201 14.6188L42.6007 14.3846L42.2819 14.1504L41.9625 13.9168L41.6437 13.6826L41.3244 13.4484L41.005 13.2142L40.6862 12.9805L40.3674 12.7463L40.048 12.5121L39.7287 12.2779L39.4099 12.0443L39.0905 11.8101L38.7717 11.5759L38.4523 11.3417L38.133 11.108L37.8141 10.8738L37.4953 10.6396L37.195 10.4732L36.907 10.3634L36.6476 10.3292H36.3154L35.9607 10.3858L35.6061 10.4424L35.2508 10.499L34.8962 10.5556L34.5415 10.6122L34.1863 10.6688L33.8316 10.7253L33.477 10.7819L33.1217 10.8385L32.7671 10.8951L32.4124 10.9517L32.0572 11.0083L31.7025 11.0649L31.3479 11.1215L30.9932 11.1781L30.638 11.2347L30.2833 11.2912L29.9286 11.3478L29.6121 11.4509L29.3728 11.6481L29.216 11.791L29.1269 12.0045L29.0053 12.316L28.9162 12.8746L28.8865 13.6125V14.4401V15.2682V16.0957V16.9238V17.7514V18.5795V19.407V20.2351V21.0627V21.8908V22.7183V23.5459V24.374V25.2021V26.0296V26.8572V27.6853V28.5128L28.9162 29.267L29.0053 29.8727L29.1269 30.2475L29.1952 30.503L29.3723 30.7848L29.5835 31.0487L29.8659 31.3098L30.1853 31.544L30.5041 31.7782L30.8229 32.0124L31.1422 32.246L31.4616 32.4802L31.781 32.7144L32.0998 32.9486L32.4186 33.1823L32.7379 33.4165L33.0573 33.6507L33.3761 33.8849L33.6949 34.1185L34.0143 34.3527L34.3336 34.5869L34.653 34.8211L34.9718 35.0548L35.2906 35.289L35.61 35.5232L35.9293 35.7574L36.2481 35.991L36.5669 36.2252L36.8863 36.4594L37.1861 36.6258L37.4741 36.7362L37.734 36.7698H38.0657L38.4209 36.7132L38.7756 36.6566L39.0916 36.5535L39.3309 36.3563L39.4877 36.214L39.5779 36L39.6984 35.6885L39.7875 35.1304L39.792 35.0251L41.4762 34.7561L41.6062 34.8514L41.9255 35.0856L42.2449 35.3198L42.5643 35.554L42.864 35.7204L43.1515 35.8302L43.4114 35.8644H43.7431L44.0983 35.8078L44.453 35.7512L44.7696 35.6481L45.0083 35.4509L45.1651 35.308L45.2548 35.0945L45.3758 34.783L45.4655 34.2244L45.4951 33.4865V32.659V31.8309V31.0033V30.1752V29.3477V28.5196V27.692V26.8639V26.0364V25.2083V24.3807V23.5532V22.7251V21.8975V21.0694V20.2419V19.4137V18.5862L45.4655 17.8321Z" fill="white"/>
<path d="M38.0225 36.8425C38.1705 36.6942 38.2844 36.5154 38.356 36.3185C38.4278 36.1216 38.4556 35.9114 38.4376 35.7026C38.4669 30.2639 38.4857 24.8251 38.4939 19.3863C38.5237 18.5856 38.2902 17.7972 37.8292 17.142C37.5001 16.7549 37.1135 16.4206 36.6831 16.1508C34.9938 14.8942 33.2935 13.6524 31.5964 12.4065C31.1875 12.1063 30.775 11.8109 30.29 11.4596C30.4622 11.3967 30.6384 11.3455 30.8175 11.3062C31.1773 11.2563 31.5426 11.2432 31.9009 11.1857C32.2629 11.1275 32.6169 11.0198 32.9788 10.9599C33.2611 10.9131 33.5513 10.9159 33.8356 10.8781C34.0057 10.8554 34.1694 10.7869 34.3392 10.7578C34.4895 10.7322 34.6466 10.7454 34.7966 10.7185C35.0012 10.6819 35.2007 10.617 35.4047 10.576C35.6416 10.5284 35.8804 10.4897 36.1194 10.4541C36.4318 10.4111 36.7497 10.4332 37.0532 10.5188C37.3568 10.6044 37.6393 10.7518 37.8832 10.9516C40.0231 12.5345 42.1624 14.1186 44.3258 15.6689C44.7117 15.9398 45.0233 16.3031 45.2322 16.7257C45.441 17.1483 45.5405 17.6166 45.5214 18.0876C45.5467 20.4032 45.5446 22.7191 45.5443 25.0349C45.5438 28.0471 45.5359 31.0594 45.5205 34.0716C45.504 34.4093 45.4433 34.7435 45.3399 35.0654C45.2855 35.2594 45.1752 35.4332 45.0228 35.565C44.8703 35.6968 44.6824 35.7807 44.4825 35.8064C44.2454 35.8541 44.0046 35.8839 43.7331 35.9269C44.032 35.5497 44.1753 35.0726 44.1337 34.5931C44.1629 29.3806 44.1872 24.168 44.179 18.9555C44.2265 18.3099 44.1452 17.6613 43.9399 17.0474C43.6945 16.4284 43.2752 15.8936 42.7327 15.5076C41.6433 14.7328 40.5747 13.9288 39.4934 13.1426C38.6279 12.5133 37.7743 11.8647 36.8789 11.2808C36.4804 11.0404 36.0447 10.8676 35.5897 10.7696C35.299 10.7276 35.0033 10.7974 34.7623 10.9652C34.5212 11.1329 34.3529 11.386 34.2913 11.6731C34.2536 11.8567 34.1941 12.035 34.1142 12.2044C34.014 12.4111 34.1016 12.4302 34.2736 12.4112C34.5965 12.3499 34.9246 12.3212 35.2532 12.3252C35.5283 12.3552 35.7911 12.4551 36.0167 12.6154C38.1648 14.1723 40.3044 15.741 42.4352 17.3216C42.4851 17.3631 42.5261 17.4142 42.5558 17.472C42.5853 17.5297 42.603 17.5929 42.6076 17.6576C42.6158 23.2383 42.6202 28.8191 42.6205 34.3998C42.6207 34.6169 42.5494 34.9518 42.3755 34.9784C41.6105 35.0956 40.8244 34.9332 40.0585 35.0447C39.8984 35.068 39.8447 35.1209 39.8239 35.2822C39.7889 35.5226 39.7338 35.7596 39.6589 35.9907C39.6061 36.1668 39.5061 36.325 39.3699 36.4485C39.2336 36.5719 39.0662 36.6556 38.8857 36.6908C38.6183 36.7572 38.342 36.7878 38.0225 36.8425Z" fill="#8FB8E2"/>
<path d="M33.5694 11.2145L37.1867 10.1202L45.2548 16.2302V35.8661L43.0114 35.689L42.3738 35.1192L42.5654 17.0572L33.756 12.204L33.5694 11.2145Z" fill="#8FB8E2"/>
<path d="M37.8281 37.1072C37.6845 37.1085 37.5412 37.094 37.4007 37.064C36.9658 36.9087 36.5619 36.6773 36.2079 36.3806L31.2622 32.7508C31.046 32.5839 30.8233 32.4252 30.599 32.2654C30.163 31.9692 29.7468 31.6447 29.3531 31.2942C29.1829 31.0961 29.0303 30.8835 28.8968 30.6589C28.8465 30.5287 28.8043 30.3955 28.7704 30.2601C28.7414 30.1539 28.7141 30.0505 28.6933 29.9969C28.603 29.5082 28.555 29.0126 28.5499 28.5157V26.0283C28.5586 24.33 28.5537 22.625 28.5483 20.9184C28.5401 18.2746 28.5313 15.541 28.5794 12.8681L28.673 12.2625C28.6789 12.2278 28.69 12.1943 28.7059 12.1629C28.7267 12.1213 28.7562 12.0381 28.7879 11.9533C28.8259 11.8437 28.8699 11.7363 28.9198 11.6316C28.9286 11.6144 28.9391 11.5981 28.951 11.5829C29.039 11.4835 29.1379 11.3942 29.2459 11.317C29.2968 11.2771 29.3461 11.2404 29.3761 11.2108C29.4075 11.1796 29.4449 11.1551 29.4861 11.1386C29.7883 11.034 30.1012 10.9634 30.419 10.9279L35.5529 10.1099C36.5329 9.92935 37.0921 9.86919 38.0234 10.61L44.395 15.2838C44.7071 15.4671 44.9789 15.7115 45.1943 16.0023C45.4097 16.293 45.5642 16.6243 45.6486 16.9762C45.8041 17.6449 45.8651 18.332 45.8297 19.0177L45.8307 32.6582C45.8286 32.8043 45.8291 32.951 45.8297 33.1014C45.8979 33.9073 45.7716 34.7177 45.4614 35.4647C45.4411 35.5035 45.4132 35.538 45.3794 35.5659C45.3377 35.6009 45.2912 35.643 45.2426 35.6862C45.1501 35.7699 45.0516 35.8569 44.9668 35.9188L44.963 35.9133C44.8331 35.9788 44.6971 36.0313 44.557 36.0703L44.3398 36.1098C43.9261 36.2047 43.4983 36.2212 43.0786 36.1584C42.5881 35.9733 42.1333 35.7045 41.7347 35.3639C41.6209 35.277 41.5077 35.1905 41.395 35.1095L40.096 35.3158L40.0298 35.7414C40.0242 35.7753 40.0137 35.808 39.9986 35.8389C39.9773 35.881 39.9478 35.9636 39.9165 36.0478C39.8784 36.1579 39.8341 36.2659 39.7842 36.3712C39.7646 36.4084 39.7379 36.4414 39.7059 36.4686L39.5877 36.5726C39.4892 36.6607 39.3803 36.7564 39.2928 36.8221C39.2635 36.8441 39.2307 36.8611 39.1959 36.8724L38.8797 36.9758L38.6592 37.0157C38.3851 37.069 38.1072 37.0996 37.8281 37.1072ZM29.3302 12.4135L29.2475 12.9272C29.2037 15.5465 29.2125 18.2763 29.2207 20.9163C29.2257 22.6245 29.2311 24.3316 29.2218 26.0306L29.2224 27.1785L29.2218 28.513C29.2268 28.9442 29.264 29.3744 29.3335 29.7999C29.367 29.8927 29.3955 29.9871 29.4188 30.0828C29.45 30.1966 29.4807 30.3143 29.5053 30.3744C29.6083 30.5345 29.7208 30.6881 29.8423 30.8346C30.2067 31.1516 30.5896 31.4465 30.9892 31.7177C31.2206 31.8829 31.4504 32.0465 31.6671 32.214L36.6107 35.8417C36.8969 36.0829 37.2205 36.2761 37.5688 36.4134C37.8966 36.4478 38.2278 36.4273 38.5487 36.3527L38.7233 36.3243L38.9295 36.2531C38.9958 36.2 39.0713 36.1327 39.1413 36.0703L39.2135 36.0069C39.2354 35.9549 39.2606 35.8832 39.2863 35.8143C39.317 35.7311 39.3476 35.6501 39.3727 35.591L39.4553 35.0767L39.4565 35.0521C39.4542 35.0267 39.4549 35.0012 39.4586 34.976C39.4948 33.7088 39.4882 32.348 39.4816 31.031C39.4778 30.2119 39.474 29.3967 39.4811 28.5945V20.6936C39.4827 20.0496 39.4843 19.3191 39.4521 18.7566C39.4094 18.5804 39.2431 17.7838 39.2431 17.7838C39.1167 17.3012 38.5958 16.9258 38.1361 16.5948L32.9568 12.7975C32.88 12.7477 32.8243 12.6714 32.8003 12.5831C32.7864 12.534 32.7834 12.4824 32.7915 12.432C32.7996 12.3817 32.8187 12.3336 32.8474 12.2915C32.93 12.1886 32.93 12.1886 34.0582 12.0096C34.467 11.9451 34.8571 11.8832 34.9096 11.874C34.934 11.8698 34.9588 11.8678 34.9835 11.868C35.0249 11.8675 35.0663 11.8707 35.1072 11.8773L35.216 11.8915C35.3259 11.897 35.4346 11.9168 35.5394 11.9505C35.9563 12.1071 35.9979 12.1295 36.0581 12.1913L42.7646 17.1048C42.8072 17.1359 42.8419 17.1766 42.8658 17.2237C42.8896 17.2708 42.902 17.3229 42.9019 17.3756V35.3536C43.0146 35.4168 43.1329 35.4693 43.2554 35.5106C43.5813 35.5432 43.9105 35.5216 44.2294 35.4466L44.4 35.4186L44.608 35.347C44.6671 35.3005 44.7316 35.2419 44.7934 35.1861C44.8279 35.155 44.8623 35.1243 44.8947 35.0958C45.1222 34.4578 45.2118 33.7788 45.1573 33.1037C45.1568 32.9488 45.1562 32.7973 45.1589 32.6528L45.1573 19.0165C45.1897 18.3862 45.136 17.7545 44.9975 17.1387C44.9293 16.8657 44.8066 16.6094 44.6366 16.3851C44.4667 16.1608 44.2532 15.9733 44.0088 15.8337L37.6147 11.1441C36.9001 10.575 36.5986 10.6007 35.6668 10.7725L30.5192 11.5927C30.2717 11.6226 30.0272 11.673 29.7881 11.7432C29.7509 11.7749 29.7066 11.8105 29.6601 11.8466C29.6114 11.8843 29.5354 11.944 29.4971 11.9801C29.4741 12.032 29.4461 12.1108 29.4183 12.1869C29.3871 12.2712 29.3553 12.3532 29.3302 12.4135ZM41.476 34.4201C41.5433 34.4199 41.6091 34.4402 41.6647 34.4781C41.824 34.5859 41.9826 34.7068 42.1429 34.8294C42.1719 34.8518 42.2009 34.8737 42.23 34.8956V17.5458L35.6186 12.6969C35.5918 12.687 35.4178 12.623 35.3346 12.5918L35.321 12.5869L35.1191 12.5568C35.077 12.5508 35.0381 12.5448 35.0064 12.5393H34.9932C34.8767 12.5606 34.6474 12.5973 34.1638 12.6739C34.0981 12.6843 34.0325 12.6947 33.9673 12.7051L38.529 16.0493C39.1545 16.4017 39.6382 16.9605 39.8974 17.63C39.9007 17.6459 40.067 18.4393 40.1163 18.6664C40.1568 19.3005 40.1552 20.0414 40.1535 20.6947L40.1529 28.5973C40.1464 29.3994 40.1502 30.2119 40.154 31.0277C40.1595 32.215 40.1655 33.4374 40.1376 34.6286L41.4229 34.4239C41.4405 34.4213 41.4582 34.4201 41.476 34.4201Z" fill="#0055BA"/>
<path d="M24.2914 10.1737L24.2786 10.0022L24.0998 9.73443L23.9373 9.55906L23.5782 9.38649L23.3423 9.21336L23.1064 9.04079L22.8711 8.86766L22.6352 8.69453L22.3993 8.52196L22.1635 8.34884L21.9276 8.17571L21.6917 8.00314L21.4564 7.83001L21.2205 7.65688L20.9846 7.48431L20.7487 7.31118L20.5129 7.13805L20.277 6.96548L20.0226 6.83269L19.4399 6.78898L18.9642 6.82092V5.69305V2.71289L18.9104 2.4602L18.758 2.24785L18.5294 2.10722L18.4062 1.93521L18.1619 1.924L17.9182 1.81026L17.5652 1.73687L17.1578 1.71558L16.7572 1.74919L16.4244 1.83268L16.2104 1.95314L15.9571 1.97219L15.8781 2.147L15.6501 2.29379L15.4972 2.51118L15.4439 2.76556V5.74573V7.22994L14.715 7.34592L13.7569 7.49888L12.7988 7.65128L11.8407 7.80423L10.8826 7.95719L10.4478 8.02667V7.05121V4.07102L10.394 3.81833L10.2416 3.60598L10.0971 3.40429L9.89034 3.29391L9.58386 3.15103L9.40177 3.16841L9.04935 3.09557L8.64146 3.07372L8.24085 3.10733L7.90804 3.19082L7.69401 3.31128L7.44076 3.33033L7.36176 3.50513L7.13372 3.65249L6.98073 3.86932L6.92751 4.12369V7.10387V8.58808L6.09211 8.72143L5.13402 8.87383L4.17593 9.02678L3.30692 9.19095L2.61553 9.37809L2.10455 9.591L2.14321 9.684L1.79191 9.96023L1.61261 10.2768L1.55322 10.6281V10.9956V11.3637V11.7319V12.0994V12.4675V12.8356L1.61261 13.1701L1.77398 13.3427L1.95383 13.6128L2.18971 13.7859L2.42559 13.9584L2.66147 14.1316L2.89679 14.3047L3.13267 14.4773L3.159 14.4963L3.17413 15.3256L3.21055 16.3834L3.27106 17.4586L3.37191 18.5455L3.52879 19.6398L3.75795 20.7351L4.07508 21.8283L4.28967 22.0574L4.7054 23.0592L5.2472 23.9025L5.53687 24.1154L5.82654 24.3277L6.11677 24.5406L6.40644 24.753L6.69611 24.9659L6.98634 25.1782L7.61389 25.7413L7.90692 25.8747L8.69805 26.133L9.64213 26.1783L10.0091 26.1425V29.2459V33.9367V38.628L10.2327 39.0123L10.4506 39.8091L11.0361 40.1088L11.4922 40.5587L12.159 40.7111L12.9456 40.7643L13.7322 40.7111L14.399 40.5587L14.845 40.3307L15.4406 39.8091L15.6462 39.4555L15.8821 38.628V33.9367V29.2459V25.2533L16.49 25.1564L17.6089 24.9776L18.6493 24.7479L19.5329 24.4157L20.2781 23.9422L20.9034 23.2884L21.4183 22.4535L21.8312 21.4372L22.1489 20.3306L22.3781 19.2246L22.5355 18.1236L22.6364 17.0328L22.6969 15.9548L22.7333 14.8947L22.7512 13.9439L23.358 13.7741L23.7127 13.6139L23.7866 13.5808L24.1144 13.3382L24.2914 13.0536L24.3503 12.7129V12.3454V11.9773V11.6092V11.2416V10.8735V10.5054L24.2914 10.1737Z" fill="white"/>
<path d="M21.9201 21.3764C22.2796 20.2573 22.5089 19.1005 22.6033 17.9288C22.694 16.7056 22.7416 15.479 22.7955 14.2533C22.8036 14.0692 22.8414 13.9772 23.0358 13.9315C23.2807 13.8723 23.5187 13.7878 23.746 13.6793C23.9291 13.6175 24.089 13.5014 24.2045 13.3465C24.32 13.1916 24.3855 13.0052 24.3925 12.8121C24.3954 11.9858 24.3881 11.1594 24.3708 10.3331C24.3595 10.1803 24.3114 10.0326 24.2308 9.90236C24.1503 9.77216 24.0394 9.66326 23.9078 9.58496C22.9735 8.90462 22.04 8.22338 21.1071 7.54123C20.6578 7.1262 20.0768 6.88249 19.4659 6.85294C19.3144 6.84635 19.1637 6.82787 19.0152 6.79754C19.0152 6.68317 19.0152 6.57959 19.0152 6.47607C19.0153 5.30934 19.0108 4.14254 19.0178 2.9758C19.0332 2.76164 18.979 2.54824 18.8635 2.36729C18.7479 2.18634 18.5771 2.04749 18.3763 1.97137C17.7277 1.7434 17.0252 1.71707 16.3614 1.89582C16.2955 1.92166 16.2363 1.9619 16.188 2.01358C16.1398 2.06527 16.1037 2.1271 16.0824 2.19454C16.0625 2.25846 16.2104 2.3937 16.3049 2.46852C16.3991 2.52897 16.501 2.5766 16.6078 2.61016C16.9243 2.72318 17.2337 2.85568 17.5338 3.00691C17.6123 3.05362 17.6804 3.11578 17.7341 3.18962C17.7879 3.26347 17.826 3.34745 17.8462 3.43648C17.8941 3.92809 17.9156 4.42198 17.9104 4.91595C17.9174 6.2916 17.9131 7.66737 17.9123 9.04316C17.9123 9.13567 17.9045 9.22826 17.9005 9.31973C17.2988 9.43473 16.6779 9.39852 16.0937 9.21439C15.6677 9.07978 15.4524 9.00737 15.4881 8.39609C15.5087 8.0436 15.4919 7.68894 15.4919 7.3153L10.4988 8.10852V7.77067C10.4988 6.61264 10.4948 5.45453 10.501 4.29648C10.5117 4.12181 10.4736 3.94763 10.3909 3.79341C10.3083 3.63912 10.1843 3.51096 10.0329 3.42319C9.32884 3.08968 8.52426 3.03652 7.78244 3.2745C7.72459 3.2991 7.6729 3.33617 7.63102 3.38306C7.58914 3.42994 7.55811 3.4855 7.54011 3.54576C7.52099 3.60796 7.62682 3.75447 7.70939 3.79376C8.01937 3.9414 8.34371 4.0585 8.66104 4.19101C8.95351 4.31315 9.29872 4.40616 9.33696 4.78582C9.38374 5.25009 9.39187 5.71954 9.39418 6.18682C9.4009 7.57996 9.39656 8.97312 9.39656 10.3663V10.6675C8.7855 10.782 8.15594 10.7494 7.55993 10.5725C7.158 10.4155 6.93728 10.3673 6.97195 9.76334C6.99226 9.40958 6.97566 9.05373 6.97566 8.674C6.17956 8.80006 5.4149 8.9117 4.65389 9.0447C4.06328 9.148 3.47539 9.26657 2.89031 9.40048C2.58229 9.47066 2.55045 9.62719 2.76762 9.85333C2.80739 9.89963 2.85109 9.94235 2.8983 9.98094C3.33812 10.3007 3.78264 10.6139 4.21995 10.9369C4.78199 11.3521 5.36154 11.748 5.88912 12.2037C6.18236 12.5049 6.53954 12.7364 6.93434 12.8809C7.51168 13.0456 7.64055 13.4874 7.62332 14.0248C7.60826 14.4946 7.61988 14.9651 7.62023 15.4353C7.59796 15.7855 7.71233 16.1307 7.93918 16.3985C8.32193 16.3404 8.71014 16.2906 9.09435 16.2194C9.28373 16.1844 9.3441 16.2396 9.34684 16.4276C9.35769 17.1734 9.3773 17.9191 9.39726 18.6647C9.4112 19.1841 9.42324 19.7038 9.45021 20.2227C9.49594 21.1027 9.53187 21.9842 9.61115 22.8616C9.68679 23.6976 9.82217 24.5281 9.91091 25.3631C9.94081 25.644 10.0272 25.9486 9.77328 26.1972L9.80382 26.2563L14.0466 25.6248C14.0466 25.7698 14.047 25.8726 14.0465 25.9754C14.0293 29.7084 14.0122 33.4414 13.9951 37.1743C13.9923 37.8186 14.0009 38.4631 13.9926 39.1073C13.9833 39.8351 13.8417 40.4952 13.0465 40.8117C13.286 40.7951 13.527 40.7907 13.7647 40.7602C14.0679 40.7453 14.3651 40.67 14.639 40.5389C14.9127 40.4078 15.1577 40.2234 15.3595 39.9965C15.5612 39.7696 15.7158 39.5048 15.814 39.2176C15.9122 38.9303 15.9523 38.6263 15.9317 38.3234C15.9339 34.2571 15.9347 30.1908 15.934 26.1245C15.9342 25.8577 15.858 25.5044 15.9956 25.3482C16.135 25.1898 16.4959 25.2277 16.7593 25.177C17.4167 25.0507 18.0748 24.928 18.7299 24.791C18.8399 24.768 18.9882 24.7628 18.9891 24.5635C18.9912 24.1217 19.028 23.6801 19.0349 23.2382C19.0248 23.0461 19.0563 22.8541 19.1272 22.6753C19.1982 22.4965 19.3069 22.3351 19.446 22.2022C19.5851 22.0692 19.7512 21.968 19.9331 21.9052C20.1149 21.8425 20.3082 21.8197 20.4996 21.8385L21.9201 21.3764Z" fill="#8FB8E2"/>
<path d="M12.9689 41.1001L12.1361 41.0465L11.4176 40.8867C11.3904 40.8806 11.364 40.8711 11.3391 40.8583L10.8935 40.6301C10.8721 40.6192 10.8519 40.606 10.8333 40.5907C10.5492 40.4167 10.3061 40.1833 10.1207 39.9065C9.93532 39.6297 9.81213 39.316 9.75953 38.987L9.68564 38.7189C9.67738 38.6893 9.6731 38.6588 9.67303 38.6281L9.67332 31.9079L9.67303 26.136C9.6731 26.0468 9.70861 25.9614 9.77165 25.8984C9.83468 25.8354 9.92019 25.8 10.0093 25.8C10.0534 25.8 10.0971 25.8086 10.1379 25.8255C10.1787 25.8424 10.2157 25.8671 10.247 25.8983C10.2782 25.9295 10.3029 25.9665 10.3199 26.0073C10.3368 26.0481 10.3455 26.0918 10.3455 26.136V38.5826L10.4081 38.8098C10.4416 39.0654 10.5333 39.31 10.6762 39.5247C10.819 39.7393 11.0093 39.9184 11.2322 40.048L11.6081 40.2406L12.2338 40.3834L12.9689 40.4293L13.7094 40.3757L14.2823 40.2411L14.6546 40.0507L15.1777 39.5927L15.3342 39.3235L15.546 38.581V25.2534C15.546 25.1642 15.5814 25.0787 15.6445 25.0156C15.7075 24.9526 15.793 24.9171 15.8822 24.9171C15.9714 24.9171 16.0569 24.9526 16.1199 25.0156C16.183 25.0787 16.2184 25.1642 16.2184 25.2534V38.6281C16.2184 38.6593 16.2141 38.6904 16.2056 38.7205L15.9695 39.5484C15.9619 39.5752 15.9509 39.601 15.9366 39.625L15.7312 39.9784C15.7128 40.0099 15.6894 40.0382 15.662 40.0621L15.0662 40.5836C15.0455 40.602 15.0226 40.6176 14.998 40.6301L14.5524 40.8583C14.5274 40.871 14.5011 40.8806 14.4739 40.8867L13.8071 41.0389L12.9689 41.1001Z" fill="#0055BA"/>
<path d="M10.2177 16.3147C10.1332 16.3145 10.0519 16.2825 9.99001 16.2252C9.92803 16.1677 9.89 16.0891 9.88335 16.0049C9.87677 15.9207 9.90205 15.8372 9.9543 15.7708C10.0065 15.7044 10.0818 15.66 10.1652 15.6467L19.7584 14.1162C19.8465 14.1024 19.9363 14.1242 20.0083 14.1765C20.0804 14.2289 20.1287 14.3077 20.1427 14.3957C20.1567 14.4836 20.1352 14.5736 20.0829 14.6457C20.0307 14.7179 19.9519 14.7664 19.8641 14.7805L10.2713 16.3109C10.2536 16.3136 10.2356 16.3148 10.2177 16.3147Z" fill="#ED1E71"/>
<path d="M9.34865 26.5023C9.11914 26.5029 8.88984 26.4913 8.66166 26.4673C8.63869 26.4645 8.61607 26.4596 8.59408 26.4525L7.8026 26.1942C7.47532 26.0509 7.17018 25.8617 6.89624 25.6323C6.79007 25.5513 6.68641 25.472 6.58493 25.4025C6.03508 25.0203 5.51162 24.6015 5.01808 24.1489C3.03059 21.8356 2.91076 17.8233 2.82322 14.8938L2.81117 14.4944C2.80865 14.4054 2.84157 14.3191 2.90257 14.2544C2.96365 14.1897 3.04782 14.1518 3.13677 14.1491C3.22564 14.1463 3.31207 14.1789 3.37699 14.2397C3.44185 14.3006 3.48001 14.3846 3.48303 14.4736L3.49542 14.8735C3.57968 17.7029 3.69538 21.5778 5.50238 23.6839C5.96385 24.1028 6.45207 24.4913 6.96382 24.8471C7.07493 24.9232 7.18845 25.0096 7.30415 25.0977C7.52365 25.2834 7.76695 25.4391 8.02749 25.5606L8.76889 25.8025C9.83876 25.8475 10.9101 25.7587 11.958 25.5382L16.437 24.8241C17.4502 24.7192 18.4447 24.4791 19.3941 24.1101L20.0628 23.6806L20.6392 23.0781C22.2407 20.6204 22.3269 17.3051 22.4032 14.3789L22.415 13.9346C22.4191 13.846 22.4573 13.7626 22.5217 13.7016C22.5861 13.6407 22.6716 13.6071 22.7602 13.6079C22.8043 13.6092 22.8478 13.6191 22.8881 13.6371C22.9284 13.6551 22.9648 13.6808 22.9951 13.7129C23.0254 13.745 23.0492 13.7827 23.0649 13.8239C23.0806 13.8652 23.0881 13.9091 23.0869 13.9532L23.0751 14.3964C22.9966 17.4222 22.9074 20.8523 21.1844 23.4732C21.1731 23.4901 21.1604 23.5061 21.1464 23.5208L20.521 24.1747C20.5022 24.1941 20.4812 24.2112 20.4583 24.2255L19.7134 24.6994C18.6965 25.1093 17.6273 25.3751 16.5369 25.4889L12.0672 26.2019C11.1706 26.3754 10.2614 26.4758 9.34865 26.5023Z" fill="#0055BA"/>
<path d="M10.4473 8.36268C10.3628 8.36261 10.2814 8.33068 10.2193 8.27325C10.1573 8.21589 10.1191 8.13717 10.1125 8.05292C10.1059 7.96866 10.1312 7.88497 10.1835 7.81857C10.2359 7.75218 10.3113 7.70792 10.3948 7.69461L15.3906 6.89798C15.4785 6.88418 15.5685 6.90589 15.6405 6.95828C15.7125 7.01064 15.7608 7.08943 15.7748 7.17739C15.7888 7.26536 15.7673 7.35529 15.7151 7.42742C15.6628 7.49956 15.5841 7.54803 15.4962 7.56217L10.5004 8.35883C10.4828 8.36149 10.465 8.36275 10.4473 8.36268Z" fill="#0055BA"/>
<path d="M6.72597 16.7648C6.41116 16.7691 6.09691 16.7362 5.7898 16.6668C5.76613 16.6613 5.74315 16.6531 5.72137 16.6422L5.59475 16.5815C5.3104 16.4606 5.04272 16.3039 4.79809 16.1153L2.46168 14.4032C2.3673 14.3283 2.27319 14.262 2.17717 14.1948C1.94006 14.0427 1.7236 13.8607 1.53316 13.6531L1.33317 13.3576C1.31185 13.3257 1.29612 13.2904 1.28667 13.2531C1.24486 13.0636 1.21751 12.8712 1.20486 12.6775C1.20596 12.4903 1.20542 12.2814 1.20486 12.0751L1.20459 11.5613C1.20924 11.4168 1.20678 11.2735 1.20432 11.1263C1.18344 10.764 1.20631 10.4004 1.27243 10.0435C1.28063 10.0075 1.29478 9.9731 1.31429 9.94173L1.49103 9.65717C1.5134 9.62131 1.54236 9.58994 1.57638 9.56472L1.90386 9.32184C2.54697 9.02292 3.23173 8.82332 3.93468 8.72975L4.11418 8.69698L6.87452 8.25645C6.96262 8.24258 7.05264 8.26415 7.12478 8.31661C7.19692 8.36907 7.24524 8.448 7.25918 8.5361C7.27311 8.62414 7.25147 8.71421 7.19909 8.78634C7.14663 8.85848 7.0677 8.9068 6.97957 8.92074L4.05584 9.39131C3.43862 9.47298 2.83561 9.6398 2.26417 9.88703L2.02917 10.0649L1.91646 10.2465C1.87471 10.5341 1.86133 10.8252 1.87652 11.1154C1.87925 11.2735 1.88171 11.4284 1.87679 11.5739L1.87735 12.0729C1.87791 12.2819 1.87847 12.4931 1.87708 12.6698C1.88767 12.7928 1.90447 12.9152 1.92741 13.0364L2.07077 13.2509C2.22071 13.3991 2.38587 13.5309 2.56348 13.6443C2.67155 13.7204 2.77715 13.7948 2.87097 13.8698L5.2183 15.5911C5.42393 15.7453 5.64741 15.8741 5.88393 15.9747L5.98135 16.0212C6.73767 16.1232 7.5057 16.0999 8.25453 15.9523C8.54644 15.903 8.95867 15.8385 9.35515 15.7761L18.7983 14.2703C19.2442 14.1915 19.7122 14.1209 20.1858 14.0503C21.2237 13.9187 22.2519 13.7189 23.2635 13.4523L23.6165 13.2898L23.8621 13.1071L23.9765 12.9232C24.0117 12.6904 24.0243 12.4548 24.014 12.2196C24.0131 12.1331 24.0126 12.0494 24.0137 11.9728V10.8719C24.0238 10.6255 24.0068 10.3787 23.9631 10.1359C23.8947 10.0224 23.8145 9.91638 23.7237 9.81973C23.6822 9.788 23.6036 9.73162 23.5232 9.67363C23.4239 9.60191 23.3221 9.5281 23.2594 9.47935L20.8585 7.71808C20.6627 7.56085 20.4524 7.42253 20.2304 7.30501L19.916 7.15506C19.6134 7.09539 19.3049 7.0706 18.9965 7.08117C18.9526 7.08552 18.9083 7.08117 18.8661 7.06843C18.8237 7.05561 18.7845 7.0346 18.7504 7.00666C18.7162 6.97861 18.688 6.94416 18.6671 6.90522C18.6463 6.86628 18.6334 6.82362 18.629 6.77971C18.6248 6.7358 18.6291 6.69139 18.642 6.64916C18.6548 6.60693 18.6758 6.56764 18.7039 6.53353C18.7319 6.4995 18.7664 6.4712 18.8053 6.45047C18.8443 6.42967 18.887 6.41678 18.9309 6.41251C19.3186 6.395 19.7071 6.42547 20.0873 6.50335C20.1147 6.50881 20.1413 6.51764 20.1664 6.52961L20.5122 6.69434C20.7778 6.83021 21.0289 6.99276 21.2616 7.17964L23.6646 8.94315C23.7301 8.99351 23.8247 9.06193 23.9169 9.12868C24.0025 9.19045 24.0863 9.25068 24.141 9.29228C24.3025 9.44685 24.4424 9.62264 24.5568 9.81482C24.5789 9.84879 24.5953 9.88612 24.6055 9.92534C24.6725 10.2426 24.6995 10.567 24.6859 10.8911L24.6865 12.2146C24.7022 12.5248 24.6785 12.8357 24.6159 13.1399C24.6072 13.1721 24.594 13.2028 24.5765 13.2313L24.3997 13.5163C24.3775 13.5523 24.3485 13.5837 24.3144 13.6087L23.987 13.8517C23.9671 13.8669 23.9453 13.8796 23.9224 13.8895L23.4961 14.0815C22.4417 14.3661 21.3689 14.5778 20.2854 14.7151C19.8181 14.7851 19.3558 14.8541 18.9101 14.9334L9.45929 16.4403C9.06534 16.5021 8.65584 16.5667 8.35762 16.6165C7.81778 16.7035 7.27262 16.753 6.72597 16.7648Z" fill="#0055BA"/>
<path d="M17.1285 9.62795C16.8845 9.63118 16.6407 9.6108 16.4005 9.56723L15.9447 9.47311C15.9236 9.46848 15.9028 9.4619 15.8829 9.45343C15.8563 9.44243 15.7573 9.39593 15.66 9.34998C15.5784 9.31118 15.4982 9.27336 15.4734 9.26244C15.3997 9.23078 15.3399 9.1737 15.3048 9.10156C15.2841 9.07782 15.2644 9.05352 15.2463 9.02775C15.197 8.96149 15.1535 8.89699 15.1453 8.88165C15.1202 8.83368 15.107 8.78038 15.107 8.72624V2.76608C15.1432 2.43516 15.2761 2.12226 15.4892 1.86655C15.5183 1.8337 15.5534 1.80676 15.5927 1.78721C15.6413 1.76312 15.7198 1.71773 15.8003 1.67123C15.9078 1.6094 16.0181 1.54648 16.0818 1.51638C16.4249 1.4128 16.7797 1.35287 17.1378 1.33801C17.4942 1.34273 17.8489 1.38714 18.1955 1.47042L18.3692 1.54812C18.5131 1.61596 18.695 1.70242 18.7878 1.75879C18.8262 1.78203 18.8594 1.81272 18.8857 1.84907L19.1833 2.26491C19.2105 2.30249 19.2294 2.34537 19.2389 2.39075L19.2925 2.64354C19.2977 2.66726 19.3002 2.69148 19.2999 2.71576C19.2964 3.11519 19.298 4.0251 19.2997 4.89726C19.3008 5.67095 19.3021 6.41508 19.2999 6.74832V8.67322C19.2998 8.73541 19.2826 8.79642 19.2501 8.84943C19.2411 8.86911 19.2288 8.89923 19.217 8.92822C19.1937 9.00078 19.1576 9.06865 19.1103 9.12846C19.0858 9.15633 19.0568 9.17979 19.0244 9.19793L18.6677 9.39929C18.6422 9.4135 18.6151 9.4245 18.587 9.43213L18.0322 9.57109C17.7323 9.6075 17.4305 9.62648 17.1285 9.62795ZM16.1168 8.82198L16.5376 8.90903C16.9931 8.97256 17.4552 8.97333 17.9109 8.91121L18.3766 8.79137L18.5973 8.66713C18.6083 8.64038 18.6181 8.61684 18.6275 8.59492V6.74607C18.6299 6.41123 18.6286 5.66983 18.6272 4.89831C18.6255 4.04968 18.6242 3.16438 18.6272 2.7469L18.5883 2.58822L18.3831 2.30206C18.2994 2.25774 18.181 2.20248 18.0833 2.15706L17.9528 2.09468C17.686 2.04449 17.4155 2.01612 17.1441 2.00988C16.8701 2.02351 16.5984 2.06662 16.3338 2.13846C16.3157 2.1494 16.2249 2.20248 16.1359 2.25388C16.073 2.29 16.0109 2.32556 15.9595 2.35402C15.8632 2.488 15.8006 2.64321 15.7771 2.80651L15.7863 8.62665C15.8008 8.64633 15.8156 8.66713 15.8296 8.68632C15.8646 8.70271 15.9059 8.72239 15.9472 8.74214C16.0126 8.77274 16.0782 8.80391 16.1168 8.82198Z" fill="#0055BA"/>
<path d="M8.79095 10.9949L8.06734 10.9605L7.43106 10.8319C7.40403 10.8264 7.37776 10.8178 7.35276 10.8062L6.947 10.6174C6.90239 10.5962 6.86296 10.5653 6.83159 10.5271C6.81982 10.5129 6.78039 10.4582 6.73991 10.4002C6.71091 10.3586 6.68052 10.3148 6.66714 10.2973C6.62022 10.2362 6.5936 10.162 6.59108 10.085C6.58996 9.29384 6.59052 8.29253 6.59136 7.27869C6.5922 6.15315 6.59304 5.01233 6.59108 4.12483C6.62708 3.79426 6.75994 3.48171 6.97299 3.22643C7.00016 3.19565 7.03276 3.17007 7.06911 3.15091C7.11008 3.12903 7.17389 3.09237 7.24224 3.05297C7.36263 2.9835 7.49584 2.90798 7.56784 2.87461C7.91018 2.77179 8.264 2.71205 8.62111 2.69678C8.97711 2.69914 9.3317 2.74341 9.6774 2.82864C9.69407 2.83356 9.75016 2.85819 9.76571 2.86531C9.91104 2.93315 10.1578 3.04914 10.2703 3.11645C10.3082 3.13941 10.3413 3.16951 10.3679 3.20509L10.6327 3.57498C10.7842 3.69859 10.7999 3.94099 10.7848 6.73697C10.784 6.90443 10.7832 7.01598 10.7837 7.04119C10.7856 7.34816 10.7845 7.87455 10.7837 8.41894C10.7826 9.03666 10.7812 9.67742 10.784 10.0292C10.7842 10.0777 10.7742 10.1256 10.7544 10.1698L10.6505 10.4013C10.621 10.4672 10.5711 10.5218 10.5082 10.5572L10.1515 10.7581C10.1262 10.7722 10.0992 10.7832 10.0713 10.7909L9.51652 10.9298C9.49768 10.9349 9.47842 10.9379 9.45902 10.9391L8.79095 10.9949ZM7.60363 10.1813L8.15138 10.2951L8.78199 10.3241L9.37701 10.2716L9.86096 10.1502L10.082 10.0259L10.1113 9.96079C10.1091 9.59639 10.1102 8.9973 10.1113 8.41782C10.1124 7.8756 10.1132 7.35033 10.1116 7.05324C10.1113 7.05107 10.1116 6.92684 10.1127 6.73368C10.1211 5.15514 10.1124 4.22555 10.0863 3.96676L9.86755 3.66141C9.75724 3.6023 9.58817 3.52463 9.48207 3.47484C9.20192 3.41568 8.9173 3.38018 8.6312 3.3687C8.35624 3.38236 8.08359 3.42547 7.81787 3.49728C7.7902 3.51258 7.67892 3.57715 7.57765 3.6357C7.52974 3.66309 7.48408 3.68935 7.44528 3.7112C7.34828 3.84539 7.2851 4.00101 7.26115 4.16483C7.26521 5.01177 7.26437 6.15315 7.26388 7.27918C7.26304 8.24715 7.26248 9.203 7.26332 9.97557L7.29148 10.0156L7.31284 10.0456L7.60363 10.1813Z" fill="#0055BA"/>
<path d="M35.4724 28.33L35.3827 27.7243L35.3261 27.5377L35.1934 27.094L35.0163 26.8122L34.8056 26.5477L34.5227 26.2866L34.2039 26.053L33.8845 25.8188L33.5652 25.5846L33.2458 25.3504L32.9275 25.1167L32.6082 24.8825L32.2888 24.6483L31.9695 24.4141L31.6506 24.1805L31.3318 23.9463L31.0125 23.7121L30.6931 23.4779L30.3737 23.2442L30.0555 23.01L29.7361 22.7758L29.4168 22.5416L29.0974 22.308L28.7786 22.0738L28.4598 21.8396L28.1404 21.6054L27.8211 21.3717L27.5017 21.1375L27.202 20.9711L26.914 20.8608L26.6546 20.8271H26.3229L25.9682 20.8837L25.613 20.9403L25.2578 20.9969L24.9031 21.0535L24.5484 21.1101L24.1938 21.1667L23.8385 21.2233L23.4839 21.2799L23.1292 21.3365L22.774 21.393L22.4193 21.4496L22.0647 21.5062L21.7094 21.5628L21.3548 21.6194L21.0001 21.676L20.6449 21.7326L20.2902 21.7892L19.9356 21.8458L19.619 21.9488L19.3803 22.1461L19.2234 22.2884L19.1338 22.5024L19.0128 22.8139L18.9231 23.372L18.8934 24.1104V24.938V25.7661V26.5936V27.4217V28.2493V29.0768V29.9049V30.7325V31.5606V32.3881V33.2163V34.0438V34.8719V35.6995V36.5276V37.3551V38.1832V39.0108L18.9231 39.7643L19.0128 40.37L19.0694 40.5566L19.2022 41.0009L19.3792 41.2827L19.5904 41.5466L19.8728 41.8077L20.1922 42.0419L20.511 42.2761L20.8304 42.5098L21.1492 42.744L21.4685 42.9782L21.7879 43.2124L22.1067 43.446L22.4261 43.6802L22.7449 43.9144L23.0642 44.1486L23.383 44.3823L23.7024 44.6165L24.0212 44.8507L24.3406 45.0849L24.6599 45.3185L24.9787 45.5527L25.2975 45.7869L25.6169 46.0211L25.9363 46.2547L26.2556 46.4889L26.5744 46.7231L26.8932 46.9573L27.1936 47.1237L27.481 47.2336L27.7415 47.2677H28.0732L28.4279 47.2111L28.7825 47.1546L29.0985 47.0509L29.3378 46.8542L29.4947 46.7114L29.5843 46.4973L29.7053 46.1864L29.795 45.6278L29.7995 45.5224L31.4837 45.2541L31.6137 45.3493L31.9325 45.5835L32.2518 45.8177L32.5712 46.0519L32.871 46.2183L33.1589 46.3281L33.4184 46.3623H33.7501L34.1053 46.3057L34.4605 46.2491L34.7765 46.1455L35.0157 45.9488L35.1726 45.8059L35.2623 45.5919L35.3827 45.281L35.4724 44.7223L35.5021 43.9844V43.1563V42.3288V41.5012V40.6731V39.8456V39.0175V38.1899V37.3618V36.5343V35.7062V34.8786V34.0505V33.223V32.3949V31.5673V30.7392V29.9117V29.0836L35.4724 28.33Z" fill="white"/>
<path d="M20.7053 21.8647C20.6409 21.9022 19.4715 22.2386 19.3898 22.2862C19.4535 22.3592 26.6905 27.3881 26.9134 27.6621C27.3729 28.2269 28.2106 28.6139 28.2094 29.3502C28.2016 34.6355 28.1988 39.9208 28.201 45.2061C28.2008 45.4933 28.204 45.782 28.1778 46.0674C28.2123 46.521 28.093 46.9729 27.8393 47.3504C28.124 47.3116 28.3505 47.2744 28.5783 47.2508C29.3948 47.1666 29.6966 46.7118 29.8035 45.9713C29.8615 45.5688 29.8593 45.5685 30.2621 45.5101C30.288 45.5063 30.3142 45.5053 30.34 45.5012C31.0949 45.3799 31.8498 45.2584 32.6252 45.1336V44.8875C32.6252 39.3149 32.6265 33.7423 32.629 28.1696C32.6336 28.0977 32.6186 28.0258 32.5855 27.9618C32.5524 27.8977 32.5024 27.8438 32.4411 27.806C30.4103 26.3237 24.5653 22.7657 26.3604 23.3433C27.8531 24.168 29.2767 25.1122 30.6173 26.1664C31.6461 26.9426 32.6223 27.5019 32.629 28.1696C32.7339 38.6217 29.8007 45.4536 33.1105 46.2221C35.0814 46.6797 34.8239 37.8714 34.8239 27.5287C34.8539 27.1725 27.3229 21.9525 27.5671 21.6459C27.7086 21.4682 25.034 21.3572 25.173 21.2031C25.1842 21.2031 25.1583 21.1999 25.1333 21.2035C24.3622 21.3127 23.5914 21.4248 22.8199 21.5313C22.5895 21.5631 22.3553 21.569 22.1259 21.6061L20.7053 21.8647Z" fill="#8FB8E2"/>
<path d="M33.2914 46.357C33.5128 45.891 33.6133 45.3767 33.5835 44.8617C33.5964 44.6621 33.5945 44.4614 33.5949 44.2613C33.6036 39.1686 33.6119 34.0759 33.6196 28.9832C33.658 28.4305 33.6061 27.8753 33.4658 27.3393C33.3085 26.7889 32.9729 26.3062 32.5117 25.9671C31.4282 25.1984 30.3691 24.3953 29.292 23.6173C28.3339 22.9253 27.3775 22.2294 26.3933 21.5759C26.0869 21.3725 25.5088 21.4557 25.1537 21.3267C25.0748 21.298 25.1752 21.1274 25.092 21.0541C25.5203 20.986 25.9487 20.9178 26.3769 20.8497C26.5513 20.8385 26.7261 20.8628 26.8907 20.9211C27.0554 20.9795 27.2064 21.0707 27.3347 21.1893C29.5397 22.7844 31.7367 24.3905 33.9258 26.0076C34.2222 26.2194 34.4931 26.4649 34.7329 26.7393C35.0695 27.2294 35.2491 27.8103 35.2481 28.4049C35.2622 28.5435 35.2686 28.6828 35.2673 28.8222C35.2682 33.9503 35.2654 39.0783 35.2588 44.2064C35.2394 44.6478 35.1695 45.0854 35.0505 45.5109C35.0048 45.6854 34.9094 45.8427 34.7757 45.9638C34.6421 46.085 34.4761 46.1646 34.2981 46.1931C33.9825 46.2667 33.6572 46.2992 33.2914 46.357Z" fill="#8FB8E2"/>
<path d="M27.8365 47.6054C27.6926 47.6066 27.5488 47.5921 27.4081 47.5621C26.9722 47.4065 26.5675 47.1743 26.213 46.8765L21.2695 43.2489C21.0529 43.0815 20.8299 42.9228 20.605 42.763C20.1694 42.467 19.7537 42.1427 19.3605 41.7924C19.1905 41.5942 19.0378 41.3816 18.9044 41.1571C18.8538 41.0264 18.8114 40.8926 18.7772 40.7566C18.7485 40.6515 18.7216 40.5481 18.7003 40.4951C18.6106 40.0065 18.5626 39.5112 18.557 39.0144V36.5271C18.5663 34.8265 18.561 33.1194 18.5556 31.4106C18.5474 28.7689 18.5389 26.037 18.5868 23.3663L18.6807 22.7606C18.6861 22.7258 18.6971 22.6922 18.7132 22.661C18.734 22.62 18.7632 22.5374 18.7944 22.4526C18.8329 22.3425 18.8772 22.2345 18.9271 22.1292C18.9362 22.1127 18.9466 22.0969 18.9583 22.0821C19.0463 21.9821 19.1455 21.8924 19.254 21.8151C19.3049 21.7752 19.3536 21.7385 19.3835 21.7095C19.415 21.6783 19.4525 21.6537 19.4937 21.6373C19.7942 21.5333 20.1052 21.4628 20.4211 21.4272L25.5609 20.6081C26.5398 20.428 27.0984 20.3673 28.0308 21.1087L34.4024 25.782C34.7144 25.9655 34.9861 26.21 35.2015 26.5009C35.4168 26.7917 35.5714 27.123 35.6559 27.4749C35.8115 28.1434 35.8724 28.8304 35.8371 29.5158L35.8382 43.157C35.8359 43.3025 35.8365 43.4492 35.8371 43.5991C35.9048 44.405 35.7789 45.2154 35.4699 45.9628C35.4494 46.0019 35.4213 46.0365 35.3873 46.0645C35.3457 46.0996 35.2986 46.1417 35.2499 46.1849C35.1575 46.2681 35.0595 46.3551 34.9753 46.417C34.9463 46.4382 34.9142 46.4546 34.8801 46.4656L34.5644 46.5685L34.3461 46.6084C33.9328 46.704 33.5052 46.7204 33.086 46.6566C32.5943 46.4716 32.1389 46.2022 31.7399 45.8605C31.6267 45.7735 31.5145 45.6881 31.4024 45.6077L30.1039 45.8145L30.0372 46.2402C30.0317 46.2737 30.0212 46.3062 30.006 46.3365C29.9852 46.3786 29.9562 46.4602 29.925 46.5439C29.886 46.655 29.8413 46.7641 29.7909 46.8705C29.7713 46.9072 29.745 46.9399 29.7132 46.9668L29.601 47.0659C29.501 47.1551 29.3893 47.2536 29.3001 47.3203C29.2708 47.3423 29.2381 47.3593 29.2033 47.3706L28.887 47.4741L28.672 47.5134C28.3965 47.5669 28.117 47.5976 27.8365 47.6054ZM19.3372 22.9116L19.2549 23.4254C19.2113 26.0425 19.2198 28.77 19.2281 31.4084C19.2332 33.1188 19.2387 34.8281 19.2294 36.5293V39.0117C19.2344 39.4426 19.2716 39.8726 19.3408 40.298C19.3742 40.3902 19.4026 40.4841 19.4258 40.5793C19.457 40.6937 19.4877 40.8113 19.5128 40.8721C19.6153 41.0325 19.7276 41.1864 19.8494 41.3328C20.2136 41.649 20.5961 41.9438 20.9948 42.2153C21.2271 42.3806 21.4572 42.5447 21.6739 42.7121L26.6158 46.3382C26.9023 46.5805 27.2268 46.7742 27.576 46.9116C27.9055 46.9463 28.2384 46.9256 28.5609 46.8503L28.73 46.8224L28.9368 46.7512C29.0047 46.697 29.0824 46.627 29.1541 46.5635L29.2203 46.5056C29.2427 46.4525 29.2684 46.3797 29.2946 46.3097C29.3253 46.2276 29.3554 46.1477 29.38 46.0891L29.4632 45.5743L29.4643 45.5513C29.462 45.5258 29.4627 45.5 29.4665 45.4747C29.5026 44.2075 29.4961 42.8462 29.4895 41.5291C29.4856 40.7101 29.4818 39.8948 29.4889 39.0927V31.1917C29.4905 30.5478 29.4922 29.8173 29.4599 29.2548C29.4172 29.0797 29.2509 28.2815 29.2509 28.2815C29.1251 27.801 28.6053 27.4263 28.1467 27.0958L22.9266 23.2761C22.8861 23.2481 22.8522 23.2116 22.8273 23.1691C22.8024 23.1266 22.7872 23.0792 22.7828 23.0302C22.7783 22.9811 22.7846 22.9317 22.8014 22.8854C22.8182 22.8391 22.8449 22.7971 22.8798 22.7623C22.9583 22.6835 22.9583 22.6835 24.0898 22.5045C24.5 22.4394 24.8862 22.3781 24.9224 22.3721C24.9426 22.3689 24.9612 22.3683 24.9853 22.3666C25.0285 22.3662 25.0717 22.3694 25.1144 22.376L25.2233 22.3902C25.3332 22.3957 25.4419 22.4156 25.5467 22.4493C25.9603 22.6036 26.003 22.6265 26.0626 22.6868L32.7724 27.6035C32.8151 27.6346 32.8497 27.6754 32.8736 27.7224C32.8974 27.7695 32.9098 27.8215 32.9098 27.8743V45.8528C33.0223 45.9156 33.1405 45.9678 33.2627 46.0088C33.5881 46.0414 33.9166 46.02 34.235 45.9453L34.4079 45.9168L34.6153 45.8457C34.6743 45.7986 34.7389 45.7401 34.8013 45.6843C34.8363 45.6531 34.8702 45.623 34.9025 45.5945C35.1291 44.9559 35.2184 44.2767 35.1646 43.6012C35.164 43.4464 35.1635 43.2959 35.1663 43.1515L35.1646 29.5152C35.197 28.885 35.1432 28.2532 35.0048 27.6374C34.9378 27.3639 34.8155 27.1069 34.6455 26.8824C34.4754 26.6579 34.2612 26.4705 34.0161 26.3319L27.6225 21.6427C26.9063 21.0732 26.6064 21.0989 25.6747 21.2707L20.5221 22.092C20.2763 22.1221 20.0333 22.1721 19.7957 22.2419C19.7585 22.2736 19.7139 22.3086 19.6677 22.3448C19.6187 22.3831 19.5421 22.4427 19.5044 22.4788C19.4814 22.5308 19.4532 22.6101 19.425 22.6868C19.3938 22.7705 19.3627 22.852 19.3372 22.9116ZM31.4838 44.9183C31.5513 44.9181 31.6173 44.9384 31.6731 44.9762C31.8313 45.084 31.9889 45.2044 32.1481 45.3264C32.1782 45.3488 32.2077 45.3719 32.2378 45.3949V28.0445L25.6265 23.195C25.5986 23.1852 25.4082 23.1152 25.33 23.0862L25.1264 23.0555C25.0827 23.049 25.0416 23.0424 25.0093 23.0374C24.9059 23.0555 24.6887 23.09 24.1949 23.1683C24.1218 23.1803 24.0477 23.1918 23.9746 23.2033L28.5401 26.5502C29.1641 26.9024 29.6466 27.4601 29.9053 28.1282C29.9091 28.1446 30.0738 28.9375 30.1236 29.1634C30.1646 29.7987 30.163 30.5395 30.1613 31.1934L30.1608 39.0954C30.1542 39.8975 30.158 40.7101 30.1619 41.5259C30.1674 42.7132 30.1734 43.9361 30.1455 45.1272L31.4307 44.9221C31.4483 44.9194 31.4661 44.9182 31.4838 44.9183Z" fill="#0055BA"/>
</g>
<defs>
<clipPath id="clip0_2_200">
<rect width="46.9242" height="47.6245" fill="white"/>
</clipPath>
</defs>
</svg>
