<svg width="351" height="351" viewBox="0 0 351 351" fill="none" xmlns="http://www.w3.org/2000/svg">
<circle cx="175.5" cy="175.5" r="142.5" fill="#ED2B00" fill-opacity="0.25"/>
<circle cx="175.5" cy="175.5" r="175.5" fill="#ED0E00" fill-opacity="0.23"/>
<circle cx="175" cy="175" r="111" fill="#ED0E00" fill-opacity="0.34"/>
<path d="M195.402 175.5L225.253 145.65C228.916 141.987 228.916 136.047 225.253 132.381L218.619 125.747C214.956 122.084 209.016 122.084 205.35 125.747L175.5 155.598L145.65 125.747C141.987 122.084 136.047 122.084 132.381 125.747L125.747 132.381C122.084 136.044 122.084 141.984 125.747 145.65L155.598 175.5L125.747 205.35C122.084 209.014 122.084 214.953 125.747 218.619L132.381 225.253C136.044 228.916 141.987 228.916 145.65 225.253L175.5 195.402L205.35 225.253C209.014 228.916 214.956 228.916 218.619 225.253L225.253 218.619C228.916 214.956 228.916 209.016 225.253 205.35L195.402 175.5Z" fill="white"/>
</svg>
