<svg width="153" height="153" viewBox="0 0 153 153" fill="none" xmlns="http://www.w3.org/2000/svg">
<path d="M76.5 153C96.7891 153 116.247 144.94 130.594 130.594C144.94 116.247 153 96.7891 153 76.5C153 56.2109 144.94 36.7529 130.594 22.4063C116.247 8.0598 96.7891 0 76.5 0C56.2109 0 36.7529 8.0598 22.4063 22.4063C8.0598 36.7529 0 56.2109 0 76.5C0 96.7891 8.0598 116.247 22.4063 130.594C36.7529 144.94 56.2109 153 76.5 153ZM110.268 62.4551L72.0176 100.705C69.2086 103.514 64.6664 103.514 61.8873 100.705L42.7623 81.5801C39.9533 78.7711 39.9533 74.2289 42.7623 71.4498C45.5713 68.6707 50.1135 68.6408 52.8926 71.4498L66.9375 85.4947L100.107 52.2949C102.916 49.4859 107.459 49.4859 110.238 52.2949C113.017 55.1039 113.047 59.6461 110.238 62.4252L110.268 62.4551Z" fill="#00B332"/>
</svg>
