<svg width="1611" height="50" viewBox="0 0 1611 50" fill="none" xmlns="http://www.w3.org/2000/svg">
<path d="M6 25L7 24.6859L8 24.3718L9 24.0579L10 23.7442L11 23.4308L12 23.1178L13 22.8053L14 22.4933L15 22.182L16 21.8713L17 21.5614L18 21.2524L19 20.9443L20 20.6371L21 20.3311L22 20.0262L23 19.7225L24 19.4202L25 19.1192L26 18.8197L27 18.5217L28 18.2252L29 17.9305L30 17.6375L31 17.3463L32 17.057L33 16.7697L34 16.4844L35 16.2012L36 15.9202L37 15.6414L38 15.3649L39 15.0908L40 14.8192L41 14.55L42 14.2835L43 14.0195L44 13.7583L45 13.4999L46 13.2443L47 12.9916L48 12.7419L49 12.4951L50 12.2515L51 12.011L52 11.7738L53 11.5397L54 11.3091L55 11.0817L56 10.8579L57 10.6375L58 10.4206L59 10.2074L60 9.99778L61 9.79188L62 9.58974L63 9.3914L64 9.1969L65 9.00631L66 8.81966L67 8.63701L68 8.45839L69 8.28385L70 8.11344L71 7.9472L72 7.78516L73 7.62737L74 7.47387L75 7.32468L76 7.17987L77 7.03945L78 6.90346L79 6.77193L80 6.64491L81 6.52241L82 6.40447L83 6.29112L84 6.18239L85 6.07829L86 5.97887L87 5.88414L88 5.79413L89 5.70885L90 5.62833L91 5.5526L92 5.48167L93 5.41554L94 5.35426L95 5.29781L96 5.24623L97 5.19952L98 5.15771L99 5.12078L100 5.08876L101 5.06165L102 5.03947L103 5.0222L104 5.00987L105 5.00246L106 5L107 5.00246L108 5.00987L109 5.0222L110 5.03947L111 5.06165L112 5.08876L113 5.12078L114 5.15771L115 5.19952L116 5.24623L117 5.29781L118 5.35426L119 5.41554L120 5.48167L121 5.5526L122 5.62833L123 5.70885L124 5.79413L125 5.88414L126 5.97887L127 6.07829L128 6.18239L129 6.29112L130 6.40447L131 6.52241L132 6.64491L133 6.77193L134 6.90346L135 7.03945L136 7.17987L137 7.32468L138 7.47387L139 7.62737L140 7.78516L141 7.9472L142 8.11344L143 8.28385L144 8.45839L145 8.63701L146 8.81966L147 9.00631L148 9.1969L149 9.3914L150 9.58974L151 9.79188L152 9.99778L153 10.2074L154 10.4206L155 10.6375L156 10.8579L157 11.0817L158 11.3091L159 11.5397L160 11.7738L161 12.011L162 12.2515L163 12.4951L164 12.7419L165 12.9916L166 13.2443L167 13.4999L168 13.7583L169 14.0195L170 14.2835L171 14.55L172 14.8192L173 15.0908L174 15.3649L175 15.6414L176 15.9202L177 16.2012L178 16.4844L179 16.7697L180 17.057L181 17.3463L182 17.6375L183 17.9305L184 18.2252L185 18.5217L186 18.8197L187 19.1192L188 19.4202L189 19.7225L190 20.0262L191 20.3311L192 20.6371L193 20.9443L194 21.2524L195 21.5614L196 21.8713L197 22.182L198 22.4933L199 22.8053L200 23.1178L201 23.4308L202 23.7442L203 24.0579L204 24.3718L205 24.6859L206 25L207 25.3141L208 25.6282L209 25.9421L210 26.2558L211 26.5692L212 26.8822L213 27.1947L214 27.5067L215 27.818L216 28.1287L217 28.4386L218 28.7476L219 29.0557L220 29.3629L221 29.6689L222 29.9738L223 30.2775L224 30.5798L225 30.8808L226 31.1803L227 31.4783L228 31.7748L229 32.0695L230 32.3625L231 32.6537L232 32.943L233 33.2303L234 33.5156L235 33.7988L236 34.0798L237 34.3586L238 34.6351L239 34.9092L240 35.1808L241 35.45L242 35.7165L243 35.9805L244 36.2417L245 36.5001L246 36.7557L247 37.0084L248 37.2581L249 37.5049L250 37.7485L251 37.989L252 38.2262L253 38.4603L254 38.6909L255 38.9183L256 39.1421L257 39.3625L258 39.5794L259 39.7926L260 40.0022L261 40.2081L262 40.4103L263 40.6086L264 40.8031L265 40.9937L266 41.1803L267 41.363L268 41.5416L269 41.7161L270 41.8866L271 42.0528L272 42.2148L273 42.3726L274 42.5261L275 42.6753L276 42.8201L277 42.9605L278 43.0965L279 43.2281L280 43.3551L281 43.4776L282 43.5955L283 43.7089L284 43.8176L285 43.9217L286 44.0211L287 44.1159L288 44.2059L289 44.2911L290 44.3717L291 44.4474L292 44.5183L293 44.5845L294 44.6457L295 44.7022L296 44.7538L297 44.8005L298 44.8423L299 44.8792L300 44.9112L301 44.9383L302 44.9605L303 44.9778L304 44.9901L305 44.9975L306 45L307 44.9975L308 44.9901L309 44.9778L310 44.9605L311 44.9383L312 44.9112L313 44.8792L314 44.8423L315 44.8005L316 44.7538L317 44.7022L318 44.6457L319 44.5845L320 44.5183L321 44.4474L322 44.3717L323 44.2911L324 44.2059L325 44.1159L326 44.0211L327 43.9217L328 43.8176L329 43.7089L330 43.5955L331 43.4776L332 43.3551L333 43.2281L334 43.0965L335 42.9605L336 42.8201L337 42.6753L338 42.5261L339 42.3726L340 42.2148L341 42.0528L342 41.8866L343 41.7161L344 41.5416L345 41.363L346 41.1803L347 40.9937L348 40.8031L349 40.6086L350 40.4103L351 40.2081L352 40.0022L353 39.7926L354 39.5794L355 39.3625L356 39.1421L357 38.9183L358 38.6909L359 38.4603L360 38.2262L361 37.989L362 37.7485L363 37.5049L364 37.2581L365 37.0084L366 36.7557L367 36.5001L368 36.2417L369 35.9805L370 35.7165L371 35.45L372 35.1808L373 34.9092L374 34.6351L375 34.3586L376 34.0798L377 33.7988L378 33.5156L379 33.2303L380 32.943L381 32.6537L382 32.3625L383 32.0695L384 31.7748L385 31.4783L386 31.1803L387 30.8808L388 30.5798L389 30.2775L390 29.9738L391 29.6689L392 29.3629L393 29.0557L394 28.7476L395 28.4386L396 28.1287L397 27.818L398 27.5067L399 27.1947L400 26.8822L401 26.5692L402 26.2558L403 25.9421L404 25.6282L405 25.3141" stroke="#00C251" stroke-width="10" stroke-miterlimit="10" stroke-linecap="round" stroke-linejoin="round"/>
<path d="M1206 25L1207 24.6859L1208 24.3718L1209 24.0579L1210 23.7442L1211 23.4308L1212 23.1178L1213 22.8053L1214 22.4933L1215 22.182L1216 21.8713L1217 21.5614L1218 21.2524L1219 20.9443L1220 20.6371L1221 20.3311L1222 20.0262L1223 19.7225L1224 19.4202L1225 19.1192L1226 18.8197L1227 18.5217L1228 18.2252L1229 17.9305L1230 17.6375L1231 17.3463L1232 17.057L1233 16.7697L1234 16.4844L1235 16.2012L1236 15.9202L1237 15.6414L1238 15.3649L1239 15.0908L1240 14.8192L1241 14.55L1242 14.2835L1243 14.0195L1244 13.7583L1245 13.4999L1246 13.2443L1247 12.9916L1248 12.7419L1249 12.4951L1250 12.2515L1251 12.011L1252 11.7738L1253 11.5397L1254 11.3091L1255 11.0817L1256 10.8579L1257 10.6375L1258 10.4206L1259 10.2074L1260 9.99778L1261 9.79188L1262 9.58974L1263 9.3914L1264 9.1969L1265 9.00631L1266 8.81966L1267 8.63701L1268 8.45839L1269 8.28385L1270 8.11344L1271 7.9472L1272 7.78516L1273 7.62737L1274 7.47387L1275 7.32468L1276 7.17987L1277 7.03945L1278 6.90346L1279 6.77193L1280 6.64491L1281 6.52241L1282 6.40447L1283 6.29112L1284 6.18239L1285 6.07829L1286 5.97887L1287 5.88414L1288 5.79413L1289 5.70885L1290 5.62833L1291 5.5526L1292 5.48167L1293 5.41554L1294 5.35426L1295 5.29781L1296 5.24623L1297 5.19952L1298 5.15771L1299 5.12078L1300 5.08876L1301 5.06165L1302 5.03947L1303 5.0222L1304 5.00987L1305 5.00246L1306 5L1307 5.00246L1308 5.00987L1309 5.0222L1310 5.03947L1311 5.06165L1312 5.08876L1313 5.12078L1314 5.15771L1315 5.19952L1316 5.24623L1317 5.29781L1318 5.35426L1319 5.41554L1320 5.48167L1321 5.5526L1322 5.62833L1323 5.70885L1324 5.79413L1325 5.88414L1326 5.97887L1327 6.07829L1328 6.18239L1329 6.29112L1330 6.40447L1331 6.52241L1332 6.64491L1333 6.77193L1334 6.90346L1335 7.03945L1336 7.17987L1337 7.32468L1338 7.47387L1339 7.62737L1340 7.78516L1341 7.9472L1342 8.11344L1343 8.28385L1344 8.45839L1345 8.63701L1346 8.81966L1347 9.00631L1348 9.1969L1349 9.3914L1350 9.58974L1351 9.79188L1352 9.99778L1353 10.2074L1354 10.4206L1355 10.6375L1356 10.8579L1357 11.0817L1358 11.3091L1359 11.5397L1360 11.7738L1361 12.011L1362 12.2515L1363 12.4951L1364 12.7419L1365 12.9916L1366 13.2443L1367 13.4999L1368 13.7583L1369 14.0195L1370 14.2835L1371 14.55L1372 14.8192L1373 15.0908L1374 15.3649L1375 15.6414L1376 15.9202L1377 16.2012L1378 16.4844L1379 16.7697L1380 17.057L1381 17.3463L1382 17.6375L1383 17.9305L1384 18.2252L1385 18.5217L1386 18.8197L1387 19.1192L1388 19.4202L1389 19.7225L1390 20.0262L1391 20.3311L1392 20.6371L1393 20.9443L1394 21.2524L1395 21.5614L1396 21.8713L1397 22.182L1398 22.4933L1399 22.8053L1400 23.1178L1401 23.4308L1402 23.7442L1403 24.0579L1404 24.3718L1405 24.6859L1406 25L1407 25.3141L1408 25.6282L1409 25.9421L1410 26.2558L1411 26.5692L1412 26.8822L1413 27.1947L1414 27.5067L1415 27.818L1416 28.1287L1417 28.4386L1418 28.7476L1419 29.0557L1420 29.3629L1421 29.6689L1422 29.9738L1423 30.2775L1424 30.5798L1425 30.8808L1426 31.1803L1427 31.4783L1428 31.7748L1429 32.0695L1430 32.3625L1431 32.6537L1432 32.943L1433 33.2303L1434 33.5156L1435 33.7988L1436 34.0798L1437 34.3586L1438 34.6351L1439 34.9092L1440 35.1808L1441 35.45L1442 35.7165L1443 35.9805L1444 36.2417L1445 36.5001L1446 36.7557L1447 37.0084L1448 37.2581L1449 37.5049L1450 37.7485L1451 37.989L1452 38.2262L1453 38.4603L1454 38.6909L1455 38.9183L1456 39.1421L1457 39.3625L1458 39.5794L1459 39.7926L1460 40.0022L1461 40.2081L1462 40.4103L1463 40.6086L1464 40.8031L1465 40.9937L1466 41.1803L1467 41.363L1468 41.5416L1469 41.7161L1470 41.8866L1471 42.0528L1472 42.2148L1473 42.3726L1474 42.5261L1475 42.6753L1476 42.8201L1477 42.9605L1478 43.0965L1479 43.2281L1480 43.3551L1481 43.4776L1482 43.5955L1483 43.7089L1484 43.8176L1485 43.9217L1486 44.0211L1487 44.1159L1488 44.2059L1489 44.2911L1490 44.3717L1491 44.4474L1492 44.5183L1493 44.5845L1494 44.6457L1495 44.7022L1496 44.7538L1497 44.8005L1498 44.8423L1499 44.8792L1500 44.9112L1501 44.9383L1502 44.9605L1503 44.9778L1504 44.9901L1505 44.9975L1506 45L1507 44.9975L1508 44.9901L1509 44.9778L1510 44.9605L1511 44.9383L1512 44.9112L1513 44.8792L1514 44.8423L1515 44.8005L1516 44.7538L1517 44.7022L1518 44.6457L1519 44.5845L1520 44.5183L1521 44.4474L1522 44.3717L1523 44.2911L1524 44.2059L1525 44.1159L1526 44.0211L1527 43.9217L1528 43.8176L1529 43.7089L1530 43.5955L1531 43.4776L1532 43.3551L1533 43.2281L1534 43.0965L1535 42.9605L1536 42.8201L1537 42.6753L1538 42.5261L1539 42.3726L1540 42.2148L1541 42.0528L1542 41.8866L1543 41.7161L1544 41.5416L1545 41.363L1546 41.1803L1547 40.9937L1548 40.8031L1549 40.6086L1550 40.4103L1551 40.2081L1552 40.0022L1553 39.7926L1554 39.5794L1555 39.3625L1556 39.1421L1557 38.9183L1558 38.6909L1559 38.4603L1560 38.2262L1561 37.989L1562 37.7485L1563 37.5049L1564 37.2581L1565 37.0084L1566 36.7557L1567 36.5001L1568 36.2417L1569 35.9805L1570 35.7165L1571 35.45L1572 35.1808L1573 34.9092L1574 34.6351L1575 34.3586L1576 34.0798L1577 33.7988L1578 33.5156L1579 33.2303L1580 32.943L1581 32.6537L1582 32.3625L1583 32.0695L1584 31.7748L1585 31.4783L1586 31.1803L1587 30.8808L1588 30.5798L1589 30.2775L1590 29.9738L1591 29.6689L1592 29.3629L1593 29.0557L1594 28.7476L1595 28.4386L1596 28.1287L1597 27.818L1598 27.5067L1599 27.1947L1600 26.8822L1601 26.5692L1602 26.2558L1603 25.9421L1604 25.6282L1605 25.3141" stroke="#00C251" stroke-width="10" stroke-miterlimit="10" stroke-linecap="round" stroke-linejoin="round"/>
<path d="M806 25L807 24.6859L808 24.3718L809 24.0579L810 23.7442L811 23.4308L812 23.1178L813 22.8053L814 22.4933L815 22.182L816 21.8713L817 21.5614L818 21.2524L819 20.9443L820 20.6371L821 20.3311L822 20.0262L823 19.7225L824 19.4202L825 19.1192L826 18.8197L827 18.5217L828 18.2252L829 17.9305L830 17.6375L831 17.3463L832 17.057L833 16.7697L834 16.4844L835 16.2012L836 15.9202L837 15.6414L838 15.3649L839 15.0908L840 14.8192L841 14.55L842 14.2835L843 14.0195L844 13.7583L845 13.4999L846 13.2443L847 12.9916L848 12.7419L849 12.4951L850 12.2515L851 12.011L852 11.7738L853 11.5397L854 11.3091L855 11.0817L856 10.8579L857 10.6375L858 10.4206L859 10.2074L860 9.99778L861 9.79188L862 9.58974L863 9.3914L864 9.1969L865 9.00631L866 8.81966L867 8.63701L868 8.45839L869 8.28385L870 8.11344L871 7.9472L872 7.78516L873 7.62737L874 7.47387L875 7.32468L876 7.17987L877 7.03945L878 6.90346L879 6.77193L880 6.64491L881 6.52241L882 6.40447L883 6.29112L884 6.18239L885 6.07829L886 5.97887L887 5.88414L888 5.79413L889 5.70885L890 5.62833L891 5.5526L892 5.48167L893 5.41554L894 5.35426L895 5.29781L896 5.24623L897 5.19952L898 5.15771L899 5.12078L900 5.08876L901 5.06165L902 5.03947L903 5.0222L904 5.00987L905 5.00246L906 5L907 5.00246L908 5.00987L909 5.0222L910 5.03947L911 5.06165L912 5.08876L913 5.12078L914 5.15771L915 5.19952L916 5.24623L917 5.29781L918 5.35426L919 5.41554L920 5.48167L921 5.5526L922 5.62833L923 5.70885L924 5.79413L925 5.88414L926 5.97887L927 6.07829L928 6.18239L929 6.29112L930 6.40447L931 6.52241L932 6.64491L933 6.77193L934 6.90346L935 7.03945L936 7.17987L937 7.32468L938 7.47387L939 7.62737L940 7.78516L941 7.9472L942 8.11344L943 8.28385L944 8.45839L945 8.63701L946 8.81966L947 9.00631L948 9.1969L949 9.3914L950 9.58974L951 9.79188L952 9.99778L953 10.2074L954 10.4206L955 10.6375L956 10.8579L957 11.0817L958 11.3091L959 11.5397L960 11.7738L961 12.011L962 12.2515L963 12.4951L964 12.7419L965 12.9916L966 13.2443L967 13.4999L968 13.7583L969 14.0195L970 14.2835L971 14.55L972 14.8192L973 15.0908L974 15.3649L975 15.6414L976 15.9202L977 16.2012L978 16.4844L979 16.7697L980 17.057L981 17.3463L982 17.6375L983 17.9305L984 18.2252L985 18.5217L986 18.8197L987 19.1192L988 19.4202L989 19.7225L990 20.0262L991 20.3311L992 20.6371L993 20.9443L994 21.2524L995 21.5614L996 21.8713L997 22.182L998 22.4933L999 22.8053L1000 23.1178L1001 23.4308L1002 23.7442L1003 24.0579L1004 24.3718L1005 24.6859L1006 25L1007 25.3141L1008 25.6282L1009 25.9421L1010 26.2558L1011 26.5692L1012 26.8822L1013 27.1947L1014 27.5067L1015 27.818L1016 28.1287L1017 28.4386L1018 28.7476L1019 29.0557L1020 29.3629L1021 29.6689L1022 29.9738L1023 30.2775L1024 30.5798L1025 30.8808L1026 31.1803L1027 31.4783L1028 31.7748L1029 32.0695L1030 32.3625L1031 32.6537L1032 32.943L1033 33.2303L1034 33.5156L1035 33.7988L1036 34.0798L1037 34.3586L1038 34.6351L1039 34.9092L1040 35.1808L1041 35.45L1042 35.7165L1043 35.9805L1044 36.2417L1045 36.5001L1046 36.7557L1047 37.0084L1048 37.2581L1049 37.5049L1050 37.7485L1051 37.989L1052 38.2262L1053 38.4603L1054 38.6909L1055 38.9183L1056 39.1421L1057 39.3625L1058 39.5794L1059 39.7926L1060 40.0022L1061 40.2081L1062 40.4103L1063 40.6086L1064 40.8031L1065 40.9937L1066 41.1803L1067 41.363L1068 41.5416L1069 41.7161L1070 41.8866L1071 42.0528L1072 42.2148L1073 42.3726L1074 42.5261L1075 42.6753L1076 42.8201L1077 42.9605L1078 43.0965L1079 43.2281L1080 43.3551L1081 43.4776L1082 43.5955L1083 43.7089L1084 43.8176L1085 43.9217L1086 44.0211L1087 44.1159L1088 44.2059L1089 44.2911L1090 44.3717L1091 44.4474L1092 44.5183L1093 44.5845L1094 44.6457L1095 44.7022L1096 44.7538L1097 44.8005L1098 44.8423L1099 44.8792L1100 44.9112L1101 44.9383L1102 44.9605L1103 44.9778L1104 44.9901L1105 44.9975L1106 45L1107 44.9975L1108 44.9901L1109 44.9778L1110 44.9605L1111 44.9383L1112 44.9112L1113 44.8792L1114 44.8423L1115 44.8005L1116 44.7538L1117 44.7022L1118 44.6457L1119 44.5845L1120 44.5183L1121 44.4474L1122 44.3717L1123 44.2911L1124 44.2059L1125 44.1159L1126 44.0211L1127 43.9217L1128 43.8176L1129 43.7089L1130 43.5955L1131 43.4776L1132 43.3551L1133 43.2281L1134 43.0965L1135 42.9605L1136 42.8201L1137 42.6753L1138 42.5261L1139 42.3726L1140 42.2148L1141 42.0528L1142 41.8866L1143 41.7161L1144 41.5416L1145 41.363L1146 41.1803L1147 40.9937L1148 40.8031L1149 40.6086L1150 40.4103L1151 40.2081L1152 40.0022L1153 39.7926L1154 39.5794L1155 39.3625L1156 39.1421L1157 38.9183L1158 38.6909L1159 38.4603L1160 38.2262L1161 37.989L1162 37.7485L1163 37.5049L1164 37.2581L1165 37.0084L1166 36.7557L1167 36.5001L1168 36.2417L1169 35.9805L1170 35.7165L1171 35.45L1172 35.1808L1173 34.9092L1174 34.6351L1175 34.3586L1176 34.0798L1177 33.7988L1178 33.5156L1179 33.2303L1180 32.943L1181 32.6537L1182 32.3625L1183 32.0695L1184 31.7748L1185 31.4783L1186 31.1803L1187 30.8808L1188 30.5798L1189 30.2775L1190 29.9738L1191 29.6689L1192 29.3629L1193 29.0557L1194 28.7476L1195 28.4386L1196 28.1287L1197 27.818L1198 27.5067L1199 27.1947L1200 26.8822L1201 26.5692L1202 26.2558L1203 25.9421L1204 25.6282L1205 25.3141" stroke="#00C251" stroke-width="10" stroke-miterlimit="10" stroke-linecap="round" stroke-linejoin="round"/>
<path d="M406 25L407 24.6859L408 24.3718L409 24.0579L410 23.7442L411 23.4308L412 23.1178L413 22.8053L414 22.4933L415 22.182L416 21.8713L417 21.5614L418 21.2524L419 20.9443L420 20.6371L421 20.3311L422 20.0262L423 19.7225L424 19.4202L425 19.1192L426 18.8197L427 18.5217L428 18.2252L429 17.9305L430 17.6375L431 17.3463L432 17.057L433 16.7697L434 16.4844L435 16.2012L436 15.9202L437 15.6414L438 15.3649L439 15.0908L440 14.8192L441 14.55L442 14.2835L443 14.0195L444 13.7583L445 13.4999L446 13.2443L447 12.9916L448 12.7419L449 12.4951L450 12.2515L451 12.011L452 11.7738L453 11.5397L454 11.3091L455 11.0817L456 10.8579L457 10.6375L458 10.4206L459 10.2074L460 9.99778L461 9.79188L462 9.58974L463 9.3914L464 9.1969L465 9.00631L466 8.81966L467 8.63701L468 8.45839L469 8.28385L470 8.11344L471 7.9472L472 7.78516L473 7.62737L474 7.47387L475 7.32468L476 7.17987L477 7.03945L478 6.90346L479 6.77193L480 6.64491L481 6.52241L482 6.40447L483 6.29112L484 6.18239L485 6.07829L486 5.97887L487 5.88414L488 5.79413L489 5.70885L490 5.62833L491 5.5526L492 5.48167L493 5.41554L494 5.35426L495 5.29781L496 5.24623L497 5.19952L498 5.15771L499 5.12078L500 5.08876L501 5.06165L502 5.03947L503 5.0222L504 5.00987L505 5.00246L506 5L507 5.00246L508 5.00987L509 5.0222L510 5.03947L511 5.06165L512 5.08876L513 5.12078L514 5.15771L515 5.19952L516 5.24623L517 5.29781L518 5.35426L519 5.41554L520 5.48167L521 5.5526L522 5.62833L523 5.70885L524 5.79413L525 5.88414L526 5.97887L527 6.07829L528 6.18239L529 6.29112L530 6.40447L531 6.52241L532 6.64491L533 6.77193L534 6.90346L535 7.03945L536 7.17987L537 7.32468L538 7.47387L539 7.62737L540 7.78516L541 7.9472L542 8.11344L543 8.28385L544 8.45839L545 8.63701L546 8.81966L547 9.00631L548 9.1969L549 9.3914L550 9.58974L551 9.79188L552 9.99778L553 10.2074L554 10.4206L555 10.6375L556 10.8579L557 11.0817L558 11.3091L559 11.5397L560 11.7738L561 12.011L562 12.2515L563 12.4951L564 12.7419L565 12.9916L566 13.2443L567 13.4999L568 13.7583L569 14.0195L570 14.2835L571 14.55L572 14.8192L573 15.0908L574 15.3649L575 15.6414L576 15.9202L577 16.2012L578 16.4844L579 16.7697L580 17.057L581 17.3463L582 17.6375L583 17.9305L584 18.2252L585 18.5217L586 18.8197L587 19.1192L588 19.4202L589 19.7225L590 20.0262L591 20.3311L592 20.6371L593 20.9443L594 21.2524L595 21.5614L596 21.8713L597 22.182L598 22.4933L599 22.8053L600 23.1178L601 23.4308L602 23.7442L603 24.0579L604 24.3718L605 24.6859L606 25L607 25.3141L608 25.6282L609 25.9421L610 26.2558L611 26.5692L612 26.8822L613 27.1947L614 27.5067L615 27.818L616 28.1287L617 28.4386L618 28.7476L619 29.0557L620 29.3629L621 29.6689L622 29.9738L623 30.2775L624 30.5798L625 30.8808L626 31.1803L627 31.4783L628 31.7748L629 32.0695L630 32.3625L631 32.6537L632 32.943L633 33.2303L634 33.5156L635 33.7988L636 34.0798L637 34.3586L638 34.6351L639 34.9092L640 35.1808L641 35.45L642 35.7165L643 35.9805L644 36.2417L645 36.5001L646 36.7557L647 37.0084L648 37.2581L649 37.5049L650 37.7485L651 37.989L652 38.2262L653 38.4603L654 38.6909L655 38.9183L656 39.1421L657 39.3625L658 39.5794L659 39.7926L660 40.0022L661 40.2081L662 40.4103L663 40.6086L664 40.8031L665 40.9937L666 41.1803L667 41.363L668 41.5416L669 41.7161L670 41.8866L671 42.0528L672 42.2148L673 42.3726L674 42.5261L675 42.6753L676 42.8201L677 42.9605L678 43.0965L679 43.2281L680 43.3551L681 43.4776L682 43.5955L683 43.7089L684 43.8176L685 43.9217L686 44.0211L687 44.1159L688 44.2059L689 44.2911L690 44.3717L691 44.4474L692 44.5183L693 44.5845L694 44.6457L695 44.7022L696 44.7538L697 44.8005L698 44.8423L699 44.8792L700 44.9112L701 44.9383L702 44.9605L703 44.9778L704 44.9901L705 44.9975L706 45L707 44.9975L708 44.9901L709 44.9778L710 44.9605L711 44.9383L712 44.9112L713 44.8792L714 44.8423L715 44.8005L716 44.7538L717 44.7022L718 44.6457L719 44.5845L720 44.5183L721 44.4474L722 44.3717L723 44.2911L724 44.2059L725 44.1159L726 44.0211L727 43.9217L728 43.8176L729 43.7089L730 43.5955L731 43.4776L732 43.3551L733 43.2281L734 43.0965L735 42.9605L736 42.8201L737 42.6753L738 42.5261L739 42.3726L740 42.2148L741 42.0528L742 41.8866L743 41.7161L744 41.5416L745 41.363L746 41.1803L747 40.9937L748 40.8031L749 40.6086L750 40.4103L751 40.2081L752 40.0022L753 39.7926L754 39.5794L755 39.3625L756 39.1421L757 38.9183L758 38.6909L759 38.4603L760 38.2262L761 37.989L762 37.7485L763 37.5049L764 37.2581L765 37.0084L766 36.7557L767 36.5001L768 36.2417L769 35.9805L770 35.7165L771 35.45L772 35.1808L773 34.9092L774 34.6351L775 34.3586L776 34.0798L777 33.7988L778 33.5156L779 33.2303L780 32.943L781 32.6537L782 32.3625L783 32.0695L784 31.7748L785 31.4783L786 31.1803L787 30.8808L788 30.5798L789 30.2775L790 29.9738L791 29.6689L792 29.3629L793 29.0557L794 28.7476L795 28.4386L796 28.1287L797 27.818L798 27.5067L799 27.1947L800 26.8822L801 26.5692L802 26.2558L803 25.9421L804 25.6282L805 25.3141" stroke="#00C251" stroke-width="10" stroke-miterlimit="10" stroke-linecap="round" stroke-linejoin="round"/>
</svg>
