<svg width="606" height="542" viewBox="0 0 606 542" fill="none" xmlns="http://www.w3.org/2000/svg">
<rect x="312" y="1" width="293" height="377" rx="19" fill="#EBF7F7"/>
<rect x="329" y="201" width="258" height="8" rx="4" fill="white"/>
<rect x="329" y="288" width="258" height="8" rx="4" fill="white"/>
<rect x="329" y="225" width="258" height="8" rx="4" fill="white"/>
<rect x="329" y="249" width="258" height="23" rx="4.17476" fill="white"/>
<path d="M419.152 109.168C418.048 109.168 417.056 108.976 416.176 108.592C415.312 108.192 414.632 107.648 414.136 106.96C413.64 106.256 413.384 105.448 413.368 104.536H415.696C415.776 105.32 416.096 105.984 416.656 106.528C417.232 107.056 418.064 107.32 419.152 107.32C420.192 107.32 421.008 107.064 421.6 106.552C422.208 106.024 422.512 105.352 422.512 104.536C422.512 103.896 422.336 103.376 421.984 102.976C421.632 102.576 421.192 102.272 420.664 102.064C420.136 101.856 419.424 101.632 418.528 101.392C417.424 101.104 416.536 100.816 415.864 100.528C415.208 100.24 414.64 99.792 414.16 99.184C413.696 98.56 413.464 97.728 413.464 96.688C413.464 95.776 413.696 94.968 414.16 94.264C414.624 93.56 415.272 93.016 416.104 92.632C416.952 92.248 417.92 92.056 419.008 92.056C420.576 92.056 421.856 92.448 422.848 93.232C423.856 94.016 424.424 95.056 424.552 96.352H422.152C422.072 95.712 421.736 95.152 421.144 94.672C420.552 94.176 419.768 93.928 418.792 93.928C417.88 93.928 417.136 94.168 416.56 94.648C415.984 95.112 415.696 95.768 415.696 96.616C415.696 97.224 415.864 97.72 416.2 98.104C416.552 98.488 416.976 98.784 417.472 98.992C417.984 99.184 418.696 99.408 419.608 99.664C420.712 99.968 421.6 100.272 422.272 100.576C422.944 100.864 423.52 101.32 424 101.944C424.48 102.552 424.72 103.384 424.72 104.44C424.72 105.256 424.504 106.024 424.072 106.744C423.64 107.464 423 108.048 422.152 108.496C421.304 108.944 420.304 109.168 419.152 109.168ZM445.454 95.848L441.35 109H439.094L435.926 98.56L432.758 109H430.502L426.374 95.848H428.606L431.63 106.888L434.894 95.848H437.126L440.318 106.912L443.294 95.848H445.454ZM448.749 93.712C448.333 93.712 447.981 93.568 447.693 93.28C447.405 92.992 447.261 92.64 447.261 92.224C447.261 91.808 447.405 91.456 447.693 91.168C447.981 90.88 448.333 90.736 448.749 90.736C449.149 90.736 449.485 90.88 449.757 91.168C450.045 91.456 450.189 91.808 450.189 92.224C450.189 92.64 450.045 92.992 449.757 93.28C449.485 93.568 449.149 93.712 448.749 93.712ZM449.805 95.848V109H447.621V95.848H449.805ZM458.88 97.648H456.12V109H453.936V97.648H452.232V95.848H453.936V94.912C453.936 93.44 454.312 92.368 455.064 91.696C455.832 91.008 457.056 90.664 458.736 90.664V92.488C457.776 92.488 457.096 92.68 456.696 93.064C456.312 93.432 456.12 94.048 456.12 94.912V95.848H458.88V97.648ZM464.09 97.648V105.4C464.09 106.04 464.226 106.496 464.498 106.768C464.77 107.024 465.242 107.152 465.914 107.152H467.522V109H465.554C464.338 109 463.426 108.72 462.818 108.16C462.21 107.6 461.906 106.68 461.906 105.4V97.648H460.202V95.848H461.906V92.536H464.09V95.848H467.522V97.648H464.09ZM475.064 106.984L479.144 95.848H481.472L476.312 109H473.768L468.608 95.848H470.96L475.064 106.984ZM495.621 101.92C495.621 102.336 495.597 102.776 495.549 103.24H485.037C485.117 104.536 485.557 105.552 486.357 106.288C487.173 107.008 488.157 107.368 489.309 107.368C490.253 107.368 491.037 107.152 491.661 106.72C492.301 106.272 492.749 105.68 493.005 104.944H495.357C495.005 106.208 494.301 107.24 493.245 108.04C492.189 108.824 490.877 109.216 489.309 109.216C488.061 109.216 486.941 108.936 485.949 108.376C484.973 107.816 484.205 107.024 483.645 106C483.085 104.96 482.805 103.76 482.805 102.4C482.805 101.04 483.077 99.848 483.621 98.824C484.165 97.8 484.925 97.016 485.901 96.472C486.893 95.912 488.029 95.632 489.309 95.632C490.557 95.632 491.661 95.904 492.621 96.448C493.581 96.992 494.317 97.744 494.829 98.704C495.357 99.648 495.621 100.72 495.621 101.92ZM493.365 101.464C493.365 100.632 493.181 99.92 492.813 99.328C492.445 98.72 491.941 98.264 491.301 97.96C490.677 97.64 489.981 97.48 489.213 97.48C488.109 97.48 487.165 97.832 486.381 98.536C485.613 99.24 485.173 100.216 485.061 101.464H493.365ZM500.688 91.24V109H498.504V91.24H500.688Z" fill="black"/>
<rect x="312" y="1" width="293" height="377" rx="19" stroke="#00C251" stroke-width="2"/>
<rect x="312" y="419" width="293" height="122" rx="19" fill="#00684A"/>
<rect x="312" y="419" width="293" height="122" rx="19" stroke="#00C251" stroke-width="2"/>
<rect x="1" y="1" width="293" height="245" rx="19" fill="#00684A"/>
<rect x="33" y="89" width="123" height="8" rx="4" fill="white"/>
<rect x="33" y="119" width="83" height="8" rx="4" fill="white"/>
<rect x="33.0293" y="149" width="190.369" height="8.34951" rx="4.17476" fill="white"/>
<rect x="1" y="1" width="293" height="245" rx="19" stroke="#00C251" stroke-width="2"/>
<rect x="1" y="264" width="293" height="254" rx="19" fill="#EBF7F7"/>
<rect x="18.75" y="388.75" width="256.5" height="38.1602" rx="3.42476" fill="#00684A" stroke="#181818" stroke-width="1.5"/>
<rect x="33.0293" y="403.611" width="190.369" height="8.34951" rx="4.17476" fill="white"/>
<rect x="18" y="340" width="258" height="8" rx="4" fill="white"/>
<rect x="18" y="363" width="258" height="8" rx="4" fill="white"/>
<rect x="1" y="264" width="293" height="254" rx="19" stroke="#00C251" stroke-width="2"/>
<rect x="363" y="347" width="191" height="54" rx="7" fill="#EBF7F7"/>
<rect x="385" y="370" width="147" height="8" rx="4" fill="#00684A"/>
<rect x="363" y="347" width="191" height="54" rx="7" stroke="#181818" stroke-width="2"/>
<rect x="58" y="487" width="178" height="54" rx="7" fill="#EBF7F7"/>
<rect x="73" y="502" width="148" height="24" rx="4.17476" fill="#00684A"/>
<rect x="58" y="487" width="178" height="54" rx="7" stroke="#181818" stroke-width="2"/>
</svg>
