<svg width="45" height="40" viewBox="0 0 45 40" fill="none" xmlns="http://www.w3.org/2000/svg">
<path d="M1.33541 4.41812C0.964926 4.60336 0.514422 4.45319 0.32918 4.08271C0.143938 3.71223 0.294106 3.26172 0.66459 3.07648L1.33541 4.41812ZM22.156 15.6224L22.6291 16.2043L22.156 15.6224ZM39.5622 39.5721C39.2881 39.8826 38.8141 39.9121 38.5036 39.6379L33.4437 35.1703C33.1332 34.8961 33.1037 34.4222 33.3778 34.1117C33.652 33.8012 34.126 33.7717 34.4365 34.0459L38.9342 38.0171L42.9054 33.5193C43.1795 33.2088 43.6535 33.1794 43.964 33.4535C44.2745 33.7277 44.304 34.2016 44.0298 34.5121L39.5622 39.5721ZM0.66459 3.07648C7.98039 -0.581419 16.979 -0.449745 22.4426 2.10296C25.1697 3.3771 27.1964 5.34976 27.4543 7.93107C27.7116 10.5062 26.1697 13.3257 22.6291 16.2043L21.6828 15.0405C25.0801 12.2784 26.1438 9.90257 25.9617 8.08019C25.7803 6.26401 24.3227 4.63703 21.8076 3.46194C16.7869 1.11617 8.26972 0.950966 1.33541 4.41812L0.66459 3.07648ZM22.6291 16.2043C20.11 18.2524 18.332 19.3441 17.1733 19.6956C16.6346 19.859 15.9538 19.9466 15.4523 19.5293C14.9173 19.0841 14.963 18.3987 15.0668 17.9597C15.2903 17.0153 16.0854 15.784 17.1485 14.6201C18.2346 13.4311 19.6861 12.2185 21.3428 11.3364C22.9983 10.4551 24.8979 9.88379 26.859 10.0422C28.8394 10.2021 30.8104 11.101 32.5871 13.0319C36.0924 16.8413 38.8563 24.678 39.7486 39.0291L38.2514 39.1222C37.3626 24.8247 34.6148 17.4508 31.4833 14.0476C29.9417 12.3723 28.3131 11.6645 26.7382 11.5373C25.1441 11.4086 23.5329 11.8698 22.0477 12.6605C20.5638 13.4505 19.2447 14.5495 18.256 15.6318C17.2444 16.7392 16.6605 17.7389 16.5265 18.3051C16.4517 18.6214 16.574 18.5113 16.4117 18.3762C16.2829 18.2691 16.271 18.4018 16.7379 18.2601C17.5904 18.0016 19.1707 17.0829 21.6828 15.0405L22.6291 16.2043Z" fill="#4F4F4F"/>
</svg>
