<svg width="351" height="351" viewBox="0 0 351 351" fill="none" xmlns="http://www.w3.org/2000/svg">
<circle cx="175.5" cy="175.5" r="142.5" fill="#EDE400" fill-opacity="0.25"/>
<circle cx="175.5" cy="175.5" r="175.5" fill="#EDE400" fill-opacity="0.23"/>
<circle cx="175" cy="175" r="111" fill="#E8ED00" fill-opacity="0.5"/>
<path d="M175.5 115C142.079 115 115 142.079 115 175.5C115 208.921 142.079 236 175.5 236C208.921 236 236 208.921 236 175.5C236 142.079 208.921 115 175.5 115ZM189.43 200.407L167.913 184.77C167.157 184.209 166.718 183.331 166.718 182.404V141.347C166.718 139.737 168.035 138.419 169.645 138.419H181.355C182.965 138.419 184.282 139.737 184.282 141.347V174.939L199.773 186.209C201.091 187.161 201.359 188.991 200.407 190.308L193.528 199.773C192.577 201.066 190.747 201.359 189.43 200.407Z" fill="white"/>
</svg>
