<svg width="25" height="25" viewBox="0 0 25 25" fill="none" xmlns="http://www.w3.org/2000/svg">
<path d="M14.8438 2.34375C14.8438 3.63818 13.7944 4.6875 12.5 4.6875C11.2056 4.6875 10.1562 3.63818 10.1562 2.34375C10.1562 1.04932 11.2056 0 12.5 0C13.7944 0 14.8438 1.04932 14.8438 2.34375ZM12.5 20.3125C11.2056 20.3125 10.1562 21.3618 10.1562 22.6562C10.1562 23.9507 11.2056 25 12.5 25C13.7944 25 14.8438 23.9507 14.8438 22.6562C14.8438 21.3618 13.7944 20.3125 12.5 20.3125ZM22.6562 10.1562C21.3618 10.1562 20.3125 11.2056 20.3125 12.5C20.3125 13.7944 21.3618 14.8438 22.6562 14.8438C23.9507 14.8438 25 13.7944 25 12.5C25 11.2056 23.9507 10.1562 22.6562 10.1562ZM4.6875 12.5C4.6875 11.2056 3.63818 10.1562 2.34375 10.1562C1.04932 10.1562 0 11.2056 0 12.5C0 13.7944 1.04932 14.8438 2.34375 14.8438C3.63818 14.8438 4.6875 13.7944 4.6875 12.5ZM5.31846 17.3378C4.02402 17.3378 2.97471 18.3871 2.97471 19.6815C2.97471 20.976 4.02402 22.0253 5.31846 22.0253C6.61289 22.0253 7.66221 20.976 7.66221 19.6815C7.66221 18.3872 6.61284 17.3378 5.31846 17.3378ZM19.6815 17.3378C18.3871 17.3378 17.3378 18.3871 17.3378 19.6815C17.3378 20.976 18.3871 22.0253 19.6815 22.0253C20.976 22.0253 22.0253 20.976 22.0253 19.6815C22.0253 18.3872 20.976 17.3378 19.6815 17.3378ZM5.31846 2.97471C4.02402 2.97471 2.97471 4.02402 2.97471 5.31846C2.97471 6.61289 4.02402 7.66221 5.31846 7.66221C6.61289 7.66221 7.66221 6.61289 7.66221 5.31846C7.66221 4.02402 6.61284 2.97471 5.31846 2.97471Z" fill="white"/>
</svg>
