<svg width="18" height="18" viewBox="0 0 18 18" fill="none" xmlns="http://www.w3.org/2000/svg">
<path d="M13.9093 0.651093L8.93744 5.62294L3.9656 0.651093C3.35551 0.0410058 2.36598 0.0410058 1.75589 0.651093L0.651036 1.75595C0.0409488 2.36603 0.0409488 3.35557 0.651036 3.96566L5.62288 8.9375L0.651036 13.9093C0.0409488 14.5194 0.0409488 15.509 0.651036 16.1191L1.75589 17.2239C2.36598 17.834 3.35551 17.834 3.9656 17.2239L8.93744 12.2521L13.9093 17.2239C14.5194 17.834 15.5089 17.834 16.119 17.2239L17.2239 16.1191C17.8339 15.509 17.8339 14.5194 17.2239 13.9093L12.252 8.9375L17.2239 3.96566C17.8339 3.35557 17.8339 2.36603 17.2239 1.75595L16.119 0.651093C15.5089 0.0410058 14.5194 0.0410058 13.9093 0.651093Z" fill="white"/>
</svg>
